G04 #@! TF.FileFunction,Copper,L2,Bot,Signal*
%FSLAX46Y46*%
G04 Gerber Fmt 4.6, Leading zero omitted, Abs format (unit mm)*
G04 Created by KiCad (PCBNEW 4.0.1-stable) date 10/18/2017 12:48:17 AM*
%MOMM*%
G01*
G04 APERTURE LIST*
%ADD10C,0.100000*%
%ADD11R,1.300000X1.300000*%
%ADD12C,1.300000*%
%ADD13R,2.000000X2.000000*%
%ADD14C,2.000000*%
%ADD15O,1.600000X1.600000*%
%ADD16R,2.032000X2.032000*%
%ADD17O,2.032000X2.032000*%
%ADD18C,1.998980*%
%ADD19R,2.032000X1.727200*%
%ADD20O,2.032000X1.727200*%
%ADD21R,1.727200X2.032000*%
%ADD22O,1.727200X2.032000*%
%ADD23C,0.685800*%
%ADD24C,0.304800*%
%ADD25C,0.203200*%
%ADD26C,0.254000*%
G04 APERTURE END LIST*
D10*
D11*
X119888000Y-125730000D03*
D12*
X117388000Y-125730000D03*
D11*
X113030000Y-128778000D03*
D12*
X113030000Y-126278000D03*
D11*
X119888000Y-129032000D03*
D12*
X117388000Y-129032000D03*
D13*
X140100000Y-112464000D03*
D14*
X137560000Y-112464000D03*
D15*
X112268000Y-113792000D03*
X112268000Y-116332000D03*
X112268000Y-118872000D03*
X112268000Y-121412000D03*
X119888000Y-121412000D03*
X119888000Y-118872000D03*
X119888000Y-116332000D03*
X119888000Y-113792000D03*
D16*
X119380000Y-108204000D03*
D17*
X116840000Y-108204000D03*
D16*
X129540000Y-108204000D03*
D17*
X127000000Y-108204000D03*
D16*
X108966000Y-125730000D03*
D17*
X108966000Y-128270000D03*
D16*
X108966000Y-115570000D03*
D17*
X108966000Y-118110000D03*
D18*
X123590000Y-130664000D03*
X131210000Y-130664000D03*
X118590000Y-138764000D03*
X126210000Y-138764000D03*
X126210000Y-141664000D03*
X118590000Y-141664000D03*
X123790000Y-111864000D03*
X131410000Y-111864000D03*
X131210000Y-127864000D03*
X123590000Y-127864000D03*
X131410000Y-116964000D03*
X123790000Y-116964000D03*
X117451200Y-132013560D03*
X110948800Y-136514440D03*
X117451200Y-136514440D03*
X110948800Y-132013560D03*
D19*
X136400000Y-129264000D03*
D20*
X136400000Y-126724000D03*
X136400000Y-124184000D03*
X136400000Y-121644000D03*
X136400000Y-119104000D03*
X136400000Y-116564000D03*
D14*
X122800000Y-134264000D03*
X122800000Y-114264000D03*
D18*
X128851260Y-124963360D03*
X124100000Y-122464000D03*
X128851260Y-119964640D03*
D21*
X135600000Y-134100000D03*
D22*
X133060000Y-134100000D03*
X130520000Y-134100000D03*
D23*
X117856000Y-120205500D03*
X126936500Y-119888000D03*
X126936500Y-122237500D03*
D24*
X122800000Y-114264000D02*
X121900000Y-113364000D01*
X121900000Y-110724000D02*
X119380000Y-108204000D01*
X121900000Y-113364000D02*
X121900000Y-110724000D01*
D25*
X113030000Y-126238000D02*
X113030000Y-126278000D01*
X113030000Y-126278000D02*
X113030000Y-126238000D01*
X113030000Y-126238000D02*
X112522000Y-125730000D01*
X112522000Y-125730000D02*
X108966000Y-125730000D01*
X126238000Y-141732000D02*
X126210000Y-141664000D01*
X121539000Y-129032000D02*
X121539000Y-123534602D01*
X120900000Y-123064000D02*
X121511720Y-123507322D01*
X119000000Y-123064000D02*
X120900000Y-123064000D01*
X117856000Y-121983500D02*
X119000000Y-123064000D01*
X117856000Y-121983500D02*
X117856000Y-120205500D01*
X119888000Y-129032000D02*
X121539000Y-129032000D01*
X121539000Y-129032000D02*
X123171000Y-130664000D01*
X123171000Y-130664000D02*
X123590000Y-130664000D01*
X136398000Y-121640600D02*
X127482600Y-121640600D01*
X127482600Y-121640600D02*
X126809500Y-120967500D01*
X126809500Y-120967500D02*
X123380500Y-120967500D01*
X123380500Y-120967500D02*
X122936000Y-121412000D01*
X122936000Y-121412000D02*
X119888000Y-121412000D01*
X130556000Y-119126000D02*
X136398000Y-119126000D01*
X122720000Y-119164000D02*
X121920000Y-118364000D01*
X127233500Y-119164000D02*
X122720000Y-119164000D01*
X128033500Y-118364000D02*
X127233500Y-119164000D01*
X121158000Y-117602000D02*
X121920000Y-118364000D01*
X116078000Y-117602000D02*
X121158000Y-117602000D01*
X112268000Y-113792000D02*
X116078000Y-117602000D01*
X128033500Y-118364000D02*
X129794000Y-118364000D01*
X129794000Y-118364000D02*
X130556000Y-119126000D01*
X119888000Y-118864000D02*
X116600000Y-118864000D01*
X115100000Y-134687880D02*
X113273440Y-136514440D01*
X115100000Y-120364000D02*
X115100000Y-134687880D01*
X116600000Y-118864000D02*
X115100000Y-120364000D01*
X119896000Y-118864000D02*
X121200000Y-118864000D01*
X121200000Y-118864000D02*
X122277832Y-119887348D01*
X122277832Y-119887348D02*
X126936500Y-119888000D01*
X126936500Y-122237500D02*
X127000000Y-122301000D01*
X127000000Y-122301000D02*
X134517000Y-122301000D01*
X134517000Y-122301000D02*
X136400000Y-124184000D01*
X113273440Y-136514440D02*
X113273440Y-138737440D01*
X113273440Y-138737440D02*
X116200000Y-141664000D01*
X116200000Y-141664000D02*
X118590000Y-141664000D01*
X113273440Y-136514440D02*
X110948800Y-136514440D01*
X127000000Y-108204000D02*
X127000000Y-110264000D01*
X127000000Y-110264000D02*
X128600000Y-111864000D01*
X136400000Y-126724000D02*
X138992000Y-124132000D01*
X138992000Y-124132000D02*
X138992000Y-116894000D01*
X138992000Y-116894000D02*
X133962000Y-111864000D01*
X133962000Y-111864000D02*
X131410000Y-111864000D01*
X119888000Y-116332000D02*
X120904000Y-116332000D01*
X128547000Y-111864000D02*
X128600000Y-111864000D01*
X128600000Y-111864000D02*
X131410000Y-111864000D01*
X127508000Y-112903000D02*
X128547000Y-111864000D01*
X127508000Y-116459000D02*
X127508000Y-112903000D01*
X125399902Y-118567098D02*
X127508000Y-116459000D01*
X123139098Y-118567098D02*
X125399902Y-118567098D01*
X120904000Y-116332000D02*
X123139098Y-118567098D01*
X123790000Y-116964000D02*
X122351450Y-116964000D01*
X122351450Y-116964000D02*
X121285000Y-115838147D01*
X121285000Y-115838147D02*
X121285000Y-114808000D01*
X121285000Y-114808000D02*
X121285000Y-112141000D01*
X121285000Y-112141000D02*
X120015000Y-110871000D01*
X120015000Y-110871000D02*
X116967000Y-110871000D01*
X116967000Y-110871000D02*
X116840000Y-110744000D01*
X116840000Y-110744000D02*
X116840000Y-108204000D01*
X124100000Y-122464000D02*
X124100000Y-125214000D01*
X129550000Y-130664000D02*
X131210000Y-130664000D01*
X124100000Y-125214000D02*
X129550000Y-130664000D01*
D26*
G36*
X142079456Y-106123062D02*
X143540938Y-107584544D01*
X143690000Y-108333931D01*
X143690000Y-140194069D01*
X143540938Y-140943456D01*
X142079456Y-142404938D01*
X141330069Y-142554000D01*
X127585556Y-142554000D01*
X127628965Y-142537958D01*
X127855401Y-141928418D01*
X127831341Y-141278623D01*
X127628965Y-140790042D01*
X127362163Y-140691443D01*
X126389605Y-141664000D01*
X126403748Y-141678142D01*
X126224142Y-141857748D01*
X126210000Y-141843605D01*
X126195858Y-141857748D01*
X126016252Y-141678142D01*
X126030395Y-141664000D01*
X125057837Y-140691443D01*
X124791035Y-140790042D01*
X124564599Y-141399582D01*
X124588659Y-142049377D01*
X124791035Y-142537958D01*
X124834444Y-142554000D01*
X119990240Y-142554000D01*
X120224206Y-141990547D01*
X120224774Y-141340306D01*
X119976462Y-140739345D01*
X119517073Y-140279154D01*
X119374581Y-140219986D01*
X119463958Y-140182965D01*
X119562557Y-139916163D01*
X118590000Y-138943605D01*
X117617443Y-139916163D01*
X117716042Y-140182965D01*
X117809871Y-140217821D01*
X117665345Y-140277538D01*
X117205154Y-140736927D01*
X117126063Y-140927400D01*
X116505110Y-140927400D01*
X114010040Y-138432330D01*
X114010040Y-136838134D01*
X115816426Y-136838134D01*
X116064738Y-137439095D01*
X116524127Y-137899286D01*
X117081607Y-138130772D01*
X116944599Y-138499582D01*
X116968659Y-139149377D01*
X117171035Y-139637958D01*
X117437837Y-139736557D01*
X118410395Y-138764000D01*
X118769605Y-138764000D01*
X119742163Y-139736557D01*
X120008965Y-139637958D01*
X120213380Y-139087694D01*
X124575226Y-139087694D01*
X124823538Y-139688655D01*
X125282927Y-140148846D01*
X125425419Y-140208014D01*
X125336042Y-140245035D01*
X125237443Y-140511837D01*
X126210000Y-141484395D01*
X127057089Y-140637305D01*
X139514674Y-140637305D01*
X139801043Y-141330372D01*
X140330839Y-141861093D01*
X141023405Y-142148672D01*
X141773305Y-142149326D01*
X142466372Y-141862957D01*
X142997093Y-141333161D01*
X143284672Y-140640595D01*
X143285326Y-139890695D01*
X142998957Y-139197628D01*
X142469161Y-138666907D01*
X141776595Y-138379328D01*
X141026695Y-138378674D01*
X140333628Y-138665043D01*
X139802907Y-139194839D01*
X139515328Y-139887405D01*
X139514674Y-140637305D01*
X127057089Y-140637305D01*
X127182557Y-140511837D01*
X127083958Y-140245035D01*
X126990129Y-140210179D01*
X127134655Y-140150462D01*
X127594846Y-139691073D01*
X127844206Y-139090547D01*
X127844774Y-138440306D01*
X127596462Y-137839345D01*
X127137073Y-137379154D01*
X126536547Y-137129794D01*
X125886306Y-137129226D01*
X125285345Y-137377538D01*
X124825154Y-137836927D01*
X124575794Y-138437453D01*
X124575226Y-139087694D01*
X120213380Y-139087694D01*
X120235401Y-139028418D01*
X120211341Y-138378623D01*
X120008965Y-137890042D01*
X119742163Y-137791443D01*
X118769605Y-138764000D01*
X118410395Y-138764000D01*
X118396253Y-138749858D01*
X118575858Y-138570253D01*
X118590000Y-138584395D01*
X119562557Y-137611837D01*
X119463958Y-137345035D01*
X118954668Y-137155840D01*
X119085406Y-136840987D01*
X119085974Y-136190746D01*
X118837662Y-135589785D01*
X118378273Y-135129594D01*
X117777747Y-134880234D01*
X117127506Y-134879666D01*
X116526545Y-135127978D01*
X116066354Y-135587367D01*
X115816994Y-136187893D01*
X115816426Y-136838134D01*
X114010040Y-136838134D01*
X114010040Y-136819550D01*
X115620855Y-135208735D01*
X115780530Y-134969765D01*
X115836600Y-134687880D01*
X115836600Y-134587795D01*
X121164716Y-134587795D01*
X121413106Y-135188943D01*
X121872637Y-135649278D01*
X122473352Y-135898716D01*
X123123795Y-135899284D01*
X123724943Y-135650894D01*
X124185278Y-135191363D01*
X124434716Y-134590648D01*
X124435284Y-133940205D01*
X124424975Y-133915255D01*
X129021400Y-133915255D01*
X129021400Y-134284745D01*
X129135474Y-134858234D01*
X129460330Y-135344415D01*
X129946511Y-135669271D01*
X130520000Y-135783345D01*
X131093489Y-135669271D01*
X131579670Y-135344415D01*
X131790000Y-135029634D01*
X132000330Y-135344415D01*
X132486511Y-135669271D01*
X133060000Y-135783345D01*
X133633489Y-135669271D01*
X134119670Y-135344415D01*
X134129243Y-135330087D01*
X134133238Y-135351317D01*
X134272310Y-135567441D01*
X134484510Y-135712431D01*
X134736400Y-135763440D01*
X136463600Y-135763440D01*
X136698917Y-135719162D01*
X136915041Y-135580090D01*
X137060031Y-135367890D01*
X137111040Y-135116000D01*
X137111040Y-133084000D01*
X137066762Y-132848683D01*
X136927690Y-132632559D01*
X136715490Y-132487569D01*
X136463600Y-132436560D01*
X134736400Y-132436560D01*
X134501083Y-132480838D01*
X134284959Y-132619910D01*
X134139969Y-132832110D01*
X134131600Y-132873439D01*
X134119670Y-132855585D01*
X133633489Y-132530729D01*
X133060000Y-132416655D01*
X132486511Y-132530729D01*
X132000330Y-132855585D01*
X131790000Y-133170366D01*
X131579670Y-132855585D01*
X131093489Y-132530729D01*
X130520000Y-132416655D01*
X129946511Y-132530729D01*
X129460330Y-132855585D01*
X129135474Y-133341766D01*
X129021400Y-133915255D01*
X124424975Y-133915255D01*
X124186894Y-133339057D01*
X123727363Y-132878722D01*
X123126648Y-132629284D01*
X122476205Y-132628716D01*
X121875057Y-132877106D01*
X121414722Y-133336637D01*
X121165284Y-133937352D01*
X121164716Y-134587795D01*
X115836600Y-134587795D01*
X115836600Y-132386079D01*
X116064738Y-132938215D01*
X116524127Y-133398406D01*
X117124653Y-133647766D01*
X117774894Y-133648334D01*
X118375855Y-133400022D01*
X118836046Y-132940633D01*
X119085406Y-132340107D01*
X119085974Y-131689866D01*
X118837662Y-131088905D01*
X118378273Y-130628714D01*
X117777747Y-130379354D01*
X117127506Y-130378786D01*
X116526545Y-130627098D01*
X116066354Y-131086487D01*
X115836600Y-131639796D01*
X115836600Y-129931016D01*
X116668590Y-129931016D01*
X116724271Y-130161611D01*
X117207078Y-130329622D01*
X117717428Y-130300083D01*
X118051729Y-130161611D01*
X118107410Y-129931016D01*
X117388000Y-129211605D01*
X116668590Y-129931016D01*
X115836600Y-129931016D01*
X115836600Y-128851078D01*
X116090378Y-128851078D01*
X116119917Y-129361428D01*
X116258389Y-129695729D01*
X116488984Y-129751410D01*
X117208395Y-129032000D01*
X116488984Y-128312590D01*
X116258389Y-128368271D01*
X116090378Y-128851078D01*
X115836600Y-128851078D01*
X115836600Y-128132984D01*
X116668590Y-128132984D01*
X117388000Y-128852395D01*
X118107410Y-128132984D01*
X118051729Y-127902389D01*
X117568922Y-127734378D01*
X117058572Y-127763917D01*
X116724271Y-127902389D01*
X116668590Y-128132984D01*
X115836600Y-128132984D01*
X115836600Y-126629016D01*
X116668590Y-126629016D01*
X116724271Y-126859611D01*
X117207078Y-127027622D01*
X117717428Y-126998083D01*
X118051729Y-126859611D01*
X118107410Y-126629016D01*
X117388000Y-125909605D01*
X116668590Y-126629016D01*
X115836600Y-126629016D01*
X115836600Y-125549078D01*
X116090378Y-125549078D01*
X116119917Y-126059428D01*
X116258389Y-126393729D01*
X116488984Y-126449410D01*
X117208395Y-125730000D01*
X116488984Y-125010590D01*
X116258389Y-125066271D01*
X116090378Y-125549078D01*
X115836600Y-125549078D01*
X115836600Y-124830984D01*
X116668590Y-124830984D01*
X117388000Y-125550395D01*
X118107410Y-124830984D01*
X118051729Y-124600389D01*
X117568922Y-124432378D01*
X117058572Y-124461917D01*
X116724271Y-124600389D01*
X116668590Y-124830984D01*
X115836600Y-124830984D01*
X115836600Y-120669110D01*
X116905110Y-119600600D01*
X117077789Y-119600600D01*
X117027460Y-119650841D01*
X116878270Y-120010130D01*
X116877931Y-120399163D01*
X117026493Y-120758712D01*
X117119400Y-120851781D01*
X117119400Y-121983500D01*
X117121485Y-121993982D01*
X117119700Y-122004518D01*
X117149447Y-122134555D01*
X117175470Y-122265385D01*
X117181407Y-122274270D01*
X117183790Y-122284688D01*
X117261037Y-122393445D01*
X117335145Y-122504355D01*
X117344030Y-122510292D01*
X117350219Y-122519005D01*
X118494220Y-123599505D01*
X118607196Y-123670416D01*
X118718115Y-123744530D01*
X118728596Y-123746615D01*
X118737649Y-123752297D01*
X118869180Y-123774579D01*
X119000000Y-123800600D01*
X120661152Y-123800600D01*
X120802400Y-123902964D01*
X120802400Y-124492117D01*
X120789890Y-124483569D01*
X120538000Y-124432560D01*
X119238000Y-124432560D01*
X119002683Y-124476838D01*
X118786559Y-124615910D01*
X118641569Y-124828110D01*
X118590560Y-125080000D01*
X118590560Y-125242385D01*
X118517611Y-125066271D01*
X118287016Y-125010590D01*
X117567605Y-125730000D01*
X118287016Y-126449410D01*
X118517611Y-126393729D01*
X118590560Y-126184098D01*
X118590560Y-126380000D01*
X118634838Y-126615317D01*
X118773910Y-126831441D01*
X118986110Y-126976431D01*
X119238000Y-127027440D01*
X120538000Y-127027440D01*
X120773317Y-126983162D01*
X120802400Y-126964448D01*
X120802400Y-127794117D01*
X120789890Y-127785569D01*
X120538000Y-127734560D01*
X119238000Y-127734560D01*
X119002683Y-127778838D01*
X118786559Y-127917910D01*
X118641569Y-128130110D01*
X118590560Y-128382000D01*
X118590560Y-128544385D01*
X118517611Y-128368271D01*
X118287016Y-128312590D01*
X117567605Y-129032000D01*
X118287016Y-129751410D01*
X118517611Y-129695729D01*
X118590560Y-129486098D01*
X118590560Y-129682000D01*
X118634838Y-129917317D01*
X118773910Y-130133441D01*
X118986110Y-130278431D01*
X119238000Y-130329440D01*
X120538000Y-130329440D01*
X120773317Y-130285162D01*
X120989441Y-130146090D01*
X121134431Y-129933890D01*
X121167903Y-129768600D01*
X121233890Y-129768600D01*
X121955660Y-130490370D01*
X121955226Y-130987694D01*
X122203538Y-131588655D01*
X122662927Y-132048846D01*
X123263453Y-132298206D01*
X123913694Y-132298774D01*
X124514655Y-132050462D01*
X124974846Y-131591073D01*
X125224206Y-130990547D01*
X125224774Y-130340306D01*
X124976462Y-129739345D01*
X124517073Y-129279154D01*
X124481233Y-129264272D01*
X124514655Y-129250462D01*
X124974846Y-128791073D01*
X125224206Y-128190547D01*
X125224774Y-127540306D01*
X125112238Y-127267948D01*
X129029145Y-131184855D01*
X129268115Y-131344530D01*
X129550000Y-131400600D01*
X129745835Y-131400600D01*
X129823538Y-131588655D01*
X130282927Y-132048846D01*
X130883453Y-132298206D01*
X131533694Y-132298774D01*
X132134655Y-132050462D01*
X132594846Y-131591073D01*
X132844206Y-130990547D01*
X132844774Y-130340306D01*
X132596462Y-129739345D01*
X132407198Y-129549750D01*
X134749000Y-129549750D01*
X134749000Y-130253909D01*
X134845673Y-130487298D01*
X135024301Y-130665927D01*
X135257690Y-130762600D01*
X136114250Y-130762600D01*
X136273000Y-130603850D01*
X136273000Y-129391000D01*
X136527000Y-129391000D01*
X136527000Y-130603850D01*
X136685750Y-130762600D01*
X137542310Y-130762600D01*
X137775699Y-130665927D01*
X137954327Y-130487298D01*
X138051000Y-130253909D01*
X138051000Y-129549750D01*
X137892250Y-129391000D01*
X136527000Y-129391000D01*
X136273000Y-129391000D01*
X134907750Y-129391000D01*
X134749000Y-129549750D01*
X132407198Y-129549750D01*
X132137073Y-129279154D01*
X132101233Y-129264272D01*
X132134655Y-129250462D01*
X132594846Y-128791073D01*
X132844206Y-128190547D01*
X132844774Y-127540306D01*
X132596462Y-126939345D01*
X132137073Y-126479154D01*
X131536547Y-126229794D01*
X130886306Y-126229226D01*
X130285345Y-126477538D01*
X129825154Y-126936927D01*
X129575794Y-127537453D01*
X129575226Y-128187694D01*
X129823538Y-128788655D01*
X130282927Y-129248846D01*
X130318767Y-129263728D01*
X130285345Y-129277538D01*
X129825154Y-129736927D01*
X129778058Y-129850348D01*
X126043233Y-126115523D01*
X127878703Y-126115523D01*
X127977302Y-126382325D01*
X128586842Y-126608761D01*
X129236637Y-126584701D01*
X129725218Y-126382325D01*
X129823817Y-126115523D01*
X128851260Y-125142965D01*
X127878703Y-126115523D01*
X126043233Y-126115523D01*
X124836600Y-124908890D01*
X124836600Y-124698942D01*
X127205859Y-124698942D01*
X127229919Y-125348737D01*
X127432295Y-125837318D01*
X127699097Y-125935917D01*
X128671655Y-124963360D01*
X129030865Y-124963360D01*
X130003423Y-125935917D01*
X130270225Y-125837318D01*
X130496661Y-125227778D01*
X130472601Y-124577983D01*
X130270225Y-124089402D01*
X130003423Y-123990803D01*
X129030865Y-124963360D01*
X128671655Y-124963360D01*
X127699097Y-123990803D01*
X127432295Y-124089402D01*
X127205859Y-124698942D01*
X124836600Y-124698942D01*
X124836600Y-123928165D01*
X125024655Y-123850462D01*
X125063988Y-123811197D01*
X127878703Y-123811197D01*
X128851260Y-124783755D01*
X129823817Y-123811197D01*
X129725218Y-123544395D01*
X129115678Y-123317959D01*
X128465883Y-123342019D01*
X127977302Y-123544395D01*
X127878703Y-123811197D01*
X125063988Y-123811197D01*
X125484846Y-123391073D01*
X125734206Y-122790547D01*
X125734774Y-122140306D01*
X125554537Y-121704100D01*
X126099132Y-121704100D01*
X125958770Y-122042130D01*
X125958431Y-122431163D01*
X126106993Y-122790712D01*
X126381841Y-123066040D01*
X126741130Y-123215230D01*
X127130163Y-123215569D01*
X127489712Y-123067007D01*
X127519170Y-123037600D01*
X134211890Y-123037600D01*
X134823109Y-123648819D01*
X134716655Y-124184000D01*
X134830729Y-124757489D01*
X135155585Y-125243670D01*
X135470366Y-125454000D01*
X135155585Y-125664330D01*
X134830729Y-126150511D01*
X134716655Y-126724000D01*
X134830729Y-127297489D01*
X135155585Y-127783670D01*
X135177780Y-127798500D01*
X135024301Y-127862073D01*
X134845673Y-128040702D01*
X134749000Y-128274091D01*
X134749000Y-128978250D01*
X134907750Y-129137000D01*
X136273000Y-129137000D01*
X136273000Y-129117000D01*
X136527000Y-129117000D01*
X136527000Y-129137000D01*
X137892250Y-129137000D01*
X138051000Y-128978250D01*
X138051000Y-128274091D01*
X137954327Y-128040702D01*
X137775699Y-127862073D01*
X137622220Y-127798500D01*
X137644415Y-127783670D01*
X137969271Y-127297489D01*
X138083345Y-126724000D01*
X137976891Y-126188819D01*
X139512855Y-124652855D01*
X139562883Y-124577983D01*
X139672530Y-124413885D01*
X139684382Y-124354301D01*
X139728601Y-124132000D01*
X139728600Y-124131995D01*
X139728600Y-116894000D01*
X139672530Y-116612115D01*
X139512855Y-116373145D01*
X137238430Y-114098720D01*
X137883795Y-114099284D01*
X138484943Y-113850894D01*
X138551574Y-113784379D01*
X138635910Y-113915441D01*
X138848110Y-114060431D01*
X139100000Y-114111440D01*
X141100000Y-114111440D01*
X141335317Y-114067162D01*
X141551441Y-113928090D01*
X141696431Y-113715890D01*
X141747440Y-113464000D01*
X141747440Y-111464000D01*
X141703162Y-111228683D01*
X141564090Y-111012559D01*
X141351890Y-110867569D01*
X141100000Y-110816560D01*
X139100000Y-110816560D01*
X138864683Y-110860838D01*
X138648559Y-110999910D01*
X138551090Y-111142561D01*
X138487363Y-111078722D01*
X137886648Y-110829284D01*
X137236205Y-110828716D01*
X136635057Y-111077106D01*
X136174722Y-111536637D01*
X135925284Y-112137352D01*
X135924718Y-112785008D01*
X134482855Y-111343145D01*
X134243885Y-111183470D01*
X133962000Y-111127400D01*
X132874165Y-111127400D01*
X132796462Y-110939345D01*
X132337073Y-110479154D01*
X131736547Y-110229794D01*
X131086306Y-110229226D01*
X130485345Y-110477538D01*
X130025154Y-110936927D01*
X129946063Y-111127400D01*
X128905110Y-111127400D01*
X127736600Y-109958890D01*
X127736600Y-109691652D01*
X127968001Y-109537034D01*
X127985673Y-109579698D01*
X128164301Y-109758327D01*
X128397690Y-109855000D01*
X129254250Y-109855000D01*
X129413000Y-109696250D01*
X129413000Y-108331000D01*
X129667000Y-108331000D01*
X129667000Y-109696250D01*
X129825750Y-109855000D01*
X130682310Y-109855000D01*
X130915699Y-109758327D01*
X131094327Y-109579698D01*
X131191000Y-109346309D01*
X131191000Y-108637305D01*
X139514674Y-108637305D01*
X139801043Y-109330372D01*
X140330839Y-109861093D01*
X141023405Y-110148672D01*
X141773305Y-110149326D01*
X142466372Y-109862957D01*
X142997093Y-109333161D01*
X143284672Y-108640595D01*
X143285326Y-107890695D01*
X142998957Y-107197628D01*
X142469161Y-106666907D01*
X141776595Y-106379328D01*
X141026695Y-106378674D01*
X140333628Y-106665043D01*
X139802907Y-107194839D01*
X139515328Y-107887405D01*
X139514674Y-108637305D01*
X131191000Y-108637305D01*
X131191000Y-108489750D01*
X131032250Y-108331000D01*
X129667000Y-108331000D01*
X129413000Y-108331000D01*
X129393000Y-108331000D01*
X129393000Y-108077000D01*
X129413000Y-108077000D01*
X129413000Y-106711750D01*
X129667000Y-106711750D01*
X129667000Y-108077000D01*
X131032250Y-108077000D01*
X131191000Y-107918250D01*
X131191000Y-107061691D01*
X131094327Y-106828302D01*
X130915699Y-106649673D01*
X130682310Y-106553000D01*
X129825750Y-106553000D01*
X129667000Y-106711750D01*
X129413000Y-106711750D01*
X129254250Y-106553000D01*
X128397690Y-106553000D01*
X128164301Y-106649673D01*
X127985673Y-106828302D01*
X127968001Y-106870966D01*
X127631810Y-106646330D01*
X127000000Y-106520655D01*
X126368190Y-106646330D01*
X125832567Y-107004222D01*
X125474675Y-107539845D01*
X125349000Y-108171655D01*
X125349000Y-108236345D01*
X125474675Y-108868155D01*
X125832567Y-109403778D01*
X126263400Y-109691652D01*
X126263400Y-110264000D01*
X126319470Y-110545885D01*
X126479145Y-110784855D01*
X127531790Y-111837500D01*
X126987145Y-112382145D01*
X126827470Y-112621115D01*
X126771400Y-112903000D01*
X126771400Y-116153890D01*
X125274705Y-117650585D01*
X125424206Y-117290547D01*
X125424774Y-116640306D01*
X125176462Y-116039345D01*
X124717073Y-115579154D01*
X124116547Y-115329794D01*
X124045340Y-115329732D01*
X123952534Y-115236926D01*
X124219387Y-115138264D01*
X124445908Y-114528539D01*
X124421856Y-113878540D01*
X124242506Y-113445550D01*
X124714655Y-113250462D01*
X125174846Y-112791073D01*
X125424206Y-112190547D01*
X125424774Y-111540306D01*
X125176462Y-110939345D01*
X124717073Y-110479154D01*
X124116547Y-110229794D01*
X123466306Y-110229226D01*
X122865345Y-110477538D01*
X122405154Y-110936927D01*
X122155794Y-111537453D01*
X122155226Y-112187694D01*
X122353455Y-112667446D01*
X122021600Y-112804905D01*
X122021600Y-112141000D01*
X121965530Y-111859115D01*
X121805855Y-111620145D01*
X120535855Y-110350145D01*
X120296885Y-110190470D01*
X120015000Y-110134400D01*
X117576600Y-110134400D01*
X117576600Y-109691652D01*
X117808001Y-109537034D01*
X117825673Y-109579698D01*
X118004301Y-109758327D01*
X118237690Y-109855000D01*
X119094250Y-109855000D01*
X119253000Y-109696250D01*
X119253000Y-108331000D01*
X119507000Y-108331000D01*
X119507000Y-109696250D01*
X119665750Y-109855000D01*
X120522310Y-109855000D01*
X120755699Y-109758327D01*
X120934327Y-109579698D01*
X121031000Y-109346309D01*
X121031000Y-108489750D01*
X120872250Y-108331000D01*
X119507000Y-108331000D01*
X119253000Y-108331000D01*
X119233000Y-108331000D01*
X119233000Y-108077000D01*
X119253000Y-108077000D01*
X119253000Y-106711750D01*
X119507000Y-106711750D01*
X119507000Y-108077000D01*
X120872250Y-108077000D01*
X121031000Y-107918250D01*
X121031000Y-107061691D01*
X120934327Y-106828302D01*
X120755699Y-106649673D01*
X120522310Y-106553000D01*
X119665750Y-106553000D01*
X119507000Y-106711750D01*
X119253000Y-106711750D01*
X119094250Y-106553000D01*
X118237690Y-106553000D01*
X118004301Y-106649673D01*
X117825673Y-106828302D01*
X117808001Y-106870966D01*
X117471810Y-106646330D01*
X116840000Y-106520655D01*
X116208190Y-106646330D01*
X115672567Y-107004222D01*
X115314675Y-107539845D01*
X115189000Y-108171655D01*
X115189000Y-108236345D01*
X115314675Y-108868155D01*
X115672567Y-109403778D01*
X116103400Y-109691652D01*
X116103400Y-110744000D01*
X116159470Y-111025885D01*
X116319145Y-111264855D01*
X116446145Y-111391855D01*
X116685115Y-111551530D01*
X116967000Y-111607600D01*
X119709890Y-111607600D01*
X120548400Y-112446110D01*
X120548400Y-112521783D01*
X120465264Y-112466233D01*
X119916113Y-112357000D01*
X119859887Y-112357000D01*
X119310736Y-112466233D01*
X118845189Y-112777302D01*
X118534120Y-113242849D01*
X118424887Y-113792000D01*
X118534120Y-114341151D01*
X118845189Y-114806698D01*
X119227275Y-115062000D01*
X118845189Y-115317302D01*
X118534120Y-115782849D01*
X118424887Y-116332000D01*
X118530987Y-116865400D01*
X116383110Y-116865400D01*
X113661198Y-114143488D01*
X113731113Y-113792000D01*
X113621880Y-113242849D01*
X113310811Y-112777302D01*
X112845264Y-112466233D01*
X112296113Y-112357000D01*
X112239887Y-112357000D01*
X111690736Y-112466233D01*
X111225189Y-112777302D01*
X110914120Y-113242849D01*
X110804887Y-113792000D01*
X110914120Y-114341151D01*
X111225189Y-114806698D01*
X111607275Y-115062000D01*
X111225189Y-115317302D01*
X110914120Y-115782849D01*
X110804887Y-116332000D01*
X110914120Y-116881151D01*
X111225189Y-117346698D01*
X111607275Y-117602000D01*
X111225189Y-117857302D01*
X110914120Y-118322849D01*
X110804887Y-118872000D01*
X110914120Y-119421151D01*
X111225189Y-119886698D01*
X111629703Y-120156986D01*
X111412866Y-120259611D01*
X111036959Y-120674577D01*
X110876096Y-121062961D01*
X110998085Y-121285000D01*
X112141000Y-121285000D01*
X112141000Y-121265000D01*
X112395000Y-121265000D01*
X112395000Y-121285000D01*
X113537915Y-121285000D01*
X113659904Y-121062961D01*
X113499041Y-120674577D01*
X113123134Y-120259611D01*
X112906297Y-120156986D01*
X113310811Y-119886698D01*
X113621880Y-119421151D01*
X113731113Y-118872000D01*
X113621880Y-118322849D01*
X113310811Y-117857302D01*
X112928725Y-117602000D01*
X113310811Y-117346698D01*
X113621880Y-116881151D01*
X113731113Y-116332000D01*
X113722378Y-116288088D01*
X115557145Y-118122855D01*
X115796115Y-118282530D01*
X116078000Y-118338600D01*
X116085947Y-118338600D01*
X116079145Y-118343145D01*
X114579145Y-119843145D01*
X114419470Y-120082115D01*
X114363400Y-120364000D01*
X114363400Y-134382770D01*
X112968330Y-135777840D01*
X112412965Y-135777840D01*
X112335262Y-135589785D01*
X111875873Y-135129594D01*
X111275347Y-134880234D01*
X110625106Y-134879666D01*
X110024145Y-135127978D01*
X109563954Y-135587367D01*
X109314594Y-136187893D01*
X109314026Y-136838134D01*
X109562338Y-137439095D01*
X110021727Y-137899286D01*
X110622253Y-138148646D01*
X111272494Y-138149214D01*
X111873455Y-137900902D01*
X112333646Y-137441513D01*
X112412737Y-137251040D01*
X112536840Y-137251040D01*
X112536840Y-138737440D01*
X112592910Y-139019325D01*
X112752585Y-139258295D01*
X115679145Y-142184855D01*
X115918115Y-142344530D01*
X116200000Y-142400600D01*
X117125835Y-142400600D01*
X117189219Y-142554000D01*
X109469931Y-142554000D01*
X108720544Y-142404938D01*
X107259062Y-140943456D01*
X107198165Y-140637305D01*
X107514674Y-140637305D01*
X107801043Y-141330372D01*
X108330839Y-141861093D01*
X109023405Y-142148672D01*
X109773305Y-142149326D01*
X110466372Y-141862957D01*
X110997093Y-141333161D01*
X111284672Y-140640595D01*
X111285326Y-139890695D01*
X110998957Y-139197628D01*
X110469161Y-138666907D01*
X109776595Y-138379328D01*
X109026695Y-138378674D01*
X108333628Y-138665043D01*
X107802907Y-139194839D01*
X107515328Y-139887405D01*
X107514674Y-140637305D01*
X107198165Y-140637305D01*
X107110000Y-140194069D01*
X107110000Y-132337254D01*
X109314026Y-132337254D01*
X109562338Y-132938215D01*
X110021727Y-133398406D01*
X110622253Y-133647766D01*
X111272494Y-133648334D01*
X111873455Y-133400022D01*
X112333646Y-132940633D01*
X112583006Y-132340107D01*
X112583574Y-131689866D01*
X112335262Y-131088905D01*
X111875873Y-130628714D01*
X111275347Y-130379354D01*
X110625106Y-130378786D01*
X110024145Y-130627098D01*
X109563954Y-131086487D01*
X109314594Y-131687013D01*
X109314026Y-132337254D01*
X107110000Y-132337254D01*
X107110000Y-128270000D01*
X107282655Y-128270000D01*
X107408330Y-128901810D01*
X107766222Y-129437433D01*
X108301845Y-129795325D01*
X108933655Y-129921000D01*
X108998345Y-129921000D01*
X109630155Y-129795325D01*
X110165778Y-129437433D01*
X110523670Y-128901810D01*
X110649345Y-128270000D01*
X110621100Y-128128000D01*
X111732560Y-128128000D01*
X111732560Y-129428000D01*
X111776838Y-129663317D01*
X111915910Y-129879441D01*
X112128110Y-130024431D01*
X112380000Y-130075440D01*
X113680000Y-130075440D01*
X113915317Y-130031162D01*
X114131441Y-129892090D01*
X114276431Y-129679890D01*
X114327440Y-129428000D01*
X114327440Y-128128000D01*
X114283162Y-127892683D01*
X114144090Y-127676559D01*
X113931890Y-127531569D01*
X113680000Y-127480560D01*
X113517615Y-127480560D01*
X113693729Y-127407611D01*
X113749410Y-127177016D01*
X113030000Y-126457605D01*
X112310590Y-127177016D01*
X112366271Y-127407611D01*
X112575902Y-127480560D01*
X112380000Y-127480560D01*
X112144683Y-127524838D01*
X111928559Y-127663910D01*
X111783569Y-127876110D01*
X111732560Y-128128000D01*
X110621100Y-128128000D01*
X110523670Y-127638190D01*
X110299034Y-127301999D01*
X110341698Y-127284327D01*
X110520327Y-127105699D01*
X110617000Y-126872310D01*
X110617000Y-126097078D01*
X111732378Y-126097078D01*
X111761917Y-126607428D01*
X111900389Y-126941729D01*
X112130984Y-126997410D01*
X112850395Y-126278000D01*
X113209605Y-126278000D01*
X113929016Y-126997410D01*
X114159611Y-126941729D01*
X114327622Y-126458922D01*
X114298083Y-125948572D01*
X114159611Y-125614271D01*
X113929016Y-125558590D01*
X113209605Y-126278000D01*
X112850395Y-126278000D01*
X112130984Y-125558590D01*
X111900389Y-125614271D01*
X111732378Y-126097078D01*
X110617000Y-126097078D01*
X110617000Y-126015750D01*
X110458250Y-125857000D01*
X109093000Y-125857000D01*
X109093000Y-125877000D01*
X108839000Y-125877000D01*
X108839000Y-125857000D01*
X107473750Y-125857000D01*
X107315000Y-126015750D01*
X107315000Y-126872310D01*
X107411673Y-127105699D01*
X107590302Y-127284327D01*
X107632966Y-127301999D01*
X107408330Y-127638190D01*
X107282655Y-128270000D01*
X107110000Y-128270000D01*
X107110000Y-124587690D01*
X107315000Y-124587690D01*
X107315000Y-125444250D01*
X107473750Y-125603000D01*
X108839000Y-125603000D01*
X108839000Y-124237750D01*
X109093000Y-124237750D01*
X109093000Y-125603000D01*
X110458250Y-125603000D01*
X110617000Y-125444250D01*
X110617000Y-125378984D01*
X112310590Y-125378984D01*
X113030000Y-126098395D01*
X113749410Y-125378984D01*
X113693729Y-125148389D01*
X113210922Y-124980378D01*
X112700572Y-125009917D01*
X112366271Y-125148389D01*
X112310590Y-125378984D01*
X110617000Y-125378984D01*
X110617000Y-124587690D01*
X110520327Y-124354301D01*
X110341698Y-124175673D01*
X110108309Y-124079000D01*
X109251750Y-124079000D01*
X109093000Y-124237750D01*
X108839000Y-124237750D01*
X108680250Y-124079000D01*
X107823691Y-124079000D01*
X107590302Y-124175673D01*
X107411673Y-124354301D01*
X107315000Y-124587690D01*
X107110000Y-124587690D01*
X107110000Y-121761039D01*
X110876096Y-121761039D01*
X111036959Y-122149423D01*
X111412866Y-122564389D01*
X111918959Y-122803914D01*
X112141000Y-122682629D01*
X112141000Y-121539000D01*
X112395000Y-121539000D01*
X112395000Y-122682629D01*
X112617041Y-122803914D01*
X113123134Y-122564389D01*
X113499041Y-122149423D01*
X113659904Y-121761039D01*
X113537915Y-121539000D01*
X112395000Y-121539000D01*
X112141000Y-121539000D01*
X110998085Y-121539000D01*
X110876096Y-121761039D01*
X107110000Y-121761039D01*
X107110000Y-118110000D01*
X107282655Y-118110000D01*
X107408330Y-118741810D01*
X107766222Y-119277433D01*
X108301845Y-119635325D01*
X108933655Y-119761000D01*
X108998345Y-119761000D01*
X109630155Y-119635325D01*
X110165778Y-119277433D01*
X110523670Y-118741810D01*
X110649345Y-118110000D01*
X110523670Y-117478190D01*
X110299034Y-117141999D01*
X110341698Y-117124327D01*
X110520327Y-116945699D01*
X110617000Y-116712310D01*
X110617000Y-115855750D01*
X110458250Y-115697000D01*
X109093000Y-115697000D01*
X109093000Y-115717000D01*
X108839000Y-115717000D01*
X108839000Y-115697000D01*
X107473750Y-115697000D01*
X107315000Y-115855750D01*
X107315000Y-116712310D01*
X107411673Y-116945699D01*
X107590302Y-117124327D01*
X107632966Y-117141999D01*
X107408330Y-117478190D01*
X107282655Y-118110000D01*
X107110000Y-118110000D01*
X107110000Y-114427690D01*
X107315000Y-114427690D01*
X107315000Y-115284250D01*
X107473750Y-115443000D01*
X108839000Y-115443000D01*
X108839000Y-114077750D01*
X109093000Y-114077750D01*
X109093000Y-115443000D01*
X110458250Y-115443000D01*
X110617000Y-115284250D01*
X110617000Y-114427690D01*
X110520327Y-114194301D01*
X110341698Y-114015673D01*
X110108309Y-113919000D01*
X109251750Y-113919000D01*
X109093000Y-114077750D01*
X108839000Y-114077750D01*
X108680250Y-113919000D01*
X107823691Y-113919000D01*
X107590302Y-114015673D01*
X107411673Y-114194301D01*
X107315000Y-114427690D01*
X107110000Y-114427690D01*
X107110000Y-108637305D01*
X107514674Y-108637305D01*
X107801043Y-109330372D01*
X108330839Y-109861093D01*
X109023405Y-110148672D01*
X109773305Y-110149326D01*
X110466372Y-109862957D01*
X110997093Y-109333161D01*
X111284672Y-108640595D01*
X111285326Y-107890695D01*
X110998957Y-107197628D01*
X110469161Y-106666907D01*
X109776595Y-106379328D01*
X109026695Y-106378674D01*
X108333628Y-106665043D01*
X107802907Y-107194839D01*
X107515328Y-107887405D01*
X107514674Y-108637305D01*
X107110000Y-108637305D01*
X107110000Y-108333931D01*
X107259062Y-107584544D01*
X108720544Y-106123062D01*
X109469931Y-105974000D01*
X141330069Y-105974000D01*
X142079456Y-106123062D01*
X142079456Y-106123062D01*
G37*
X142079456Y-106123062D02*
X143540938Y-107584544D01*
X143690000Y-108333931D01*
X143690000Y-140194069D01*
X143540938Y-140943456D01*
X142079456Y-142404938D01*
X141330069Y-142554000D01*
X127585556Y-142554000D01*
X127628965Y-142537958D01*
X127855401Y-141928418D01*
X127831341Y-141278623D01*
X127628965Y-140790042D01*
X127362163Y-140691443D01*
X126389605Y-141664000D01*
X126403748Y-141678142D01*
X126224142Y-141857748D01*
X126210000Y-141843605D01*
X126195858Y-141857748D01*
X126016252Y-141678142D01*
X126030395Y-141664000D01*
X125057837Y-140691443D01*
X124791035Y-140790042D01*
X124564599Y-141399582D01*
X124588659Y-142049377D01*
X124791035Y-142537958D01*
X124834444Y-142554000D01*
X119990240Y-142554000D01*
X120224206Y-141990547D01*
X120224774Y-141340306D01*
X119976462Y-140739345D01*
X119517073Y-140279154D01*
X119374581Y-140219986D01*
X119463958Y-140182965D01*
X119562557Y-139916163D01*
X118590000Y-138943605D01*
X117617443Y-139916163D01*
X117716042Y-140182965D01*
X117809871Y-140217821D01*
X117665345Y-140277538D01*
X117205154Y-140736927D01*
X117126063Y-140927400D01*
X116505110Y-140927400D01*
X114010040Y-138432330D01*
X114010040Y-136838134D01*
X115816426Y-136838134D01*
X116064738Y-137439095D01*
X116524127Y-137899286D01*
X117081607Y-138130772D01*
X116944599Y-138499582D01*
X116968659Y-139149377D01*
X117171035Y-139637958D01*
X117437837Y-139736557D01*
X118410395Y-138764000D01*
X118769605Y-138764000D01*
X119742163Y-139736557D01*
X120008965Y-139637958D01*
X120213380Y-139087694D01*
X124575226Y-139087694D01*
X124823538Y-139688655D01*
X125282927Y-140148846D01*
X125425419Y-140208014D01*
X125336042Y-140245035D01*
X125237443Y-140511837D01*
X126210000Y-141484395D01*
X127057089Y-140637305D01*
X139514674Y-140637305D01*
X139801043Y-141330372D01*
X140330839Y-141861093D01*
X141023405Y-142148672D01*
X141773305Y-142149326D01*
X142466372Y-141862957D01*
X142997093Y-141333161D01*
X143284672Y-140640595D01*
X143285326Y-139890695D01*
X142998957Y-139197628D01*
X142469161Y-138666907D01*
X141776595Y-138379328D01*
X141026695Y-138378674D01*
X140333628Y-138665043D01*
X139802907Y-139194839D01*
X139515328Y-139887405D01*
X139514674Y-140637305D01*
X127057089Y-140637305D01*
X127182557Y-140511837D01*
X127083958Y-140245035D01*
X126990129Y-140210179D01*
X127134655Y-140150462D01*
X127594846Y-139691073D01*
X127844206Y-139090547D01*
X127844774Y-138440306D01*
X127596462Y-137839345D01*
X127137073Y-137379154D01*
X126536547Y-137129794D01*
X125886306Y-137129226D01*
X125285345Y-137377538D01*
X124825154Y-137836927D01*
X124575794Y-138437453D01*
X124575226Y-139087694D01*
X120213380Y-139087694D01*
X120235401Y-139028418D01*
X120211341Y-138378623D01*
X120008965Y-137890042D01*
X119742163Y-137791443D01*
X118769605Y-138764000D01*
X118410395Y-138764000D01*
X118396253Y-138749858D01*
X118575858Y-138570253D01*
X118590000Y-138584395D01*
X119562557Y-137611837D01*
X119463958Y-137345035D01*
X118954668Y-137155840D01*
X119085406Y-136840987D01*
X119085974Y-136190746D01*
X118837662Y-135589785D01*
X118378273Y-135129594D01*
X117777747Y-134880234D01*
X117127506Y-134879666D01*
X116526545Y-135127978D01*
X116066354Y-135587367D01*
X115816994Y-136187893D01*
X115816426Y-136838134D01*
X114010040Y-136838134D01*
X114010040Y-136819550D01*
X115620855Y-135208735D01*
X115780530Y-134969765D01*
X115836600Y-134687880D01*
X115836600Y-134587795D01*
X121164716Y-134587795D01*
X121413106Y-135188943D01*
X121872637Y-135649278D01*
X122473352Y-135898716D01*
X123123795Y-135899284D01*
X123724943Y-135650894D01*
X124185278Y-135191363D01*
X124434716Y-134590648D01*
X124435284Y-133940205D01*
X124424975Y-133915255D01*
X129021400Y-133915255D01*
X129021400Y-134284745D01*
X129135474Y-134858234D01*
X129460330Y-135344415D01*
X129946511Y-135669271D01*
X130520000Y-135783345D01*
X131093489Y-135669271D01*
X131579670Y-135344415D01*
X131790000Y-135029634D01*
X132000330Y-135344415D01*
X132486511Y-135669271D01*
X133060000Y-135783345D01*
X133633489Y-135669271D01*
X134119670Y-135344415D01*
X134129243Y-135330087D01*
X134133238Y-135351317D01*
X134272310Y-135567441D01*
X134484510Y-135712431D01*
X134736400Y-135763440D01*
X136463600Y-135763440D01*
X136698917Y-135719162D01*
X136915041Y-135580090D01*
X137060031Y-135367890D01*
X137111040Y-135116000D01*
X137111040Y-133084000D01*
X137066762Y-132848683D01*
X136927690Y-132632559D01*
X136715490Y-132487569D01*
X136463600Y-132436560D01*
X134736400Y-132436560D01*
X134501083Y-132480838D01*
X134284959Y-132619910D01*
X134139969Y-132832110D01*
X134131600Y-132873439D01*
X134119670Y-132855585D01*
X133633489Y-132530729D01*
X133060000Y-132416655D01*
X132486511Y-132530729D01*
X132000330Y-132855585D01*
X131790000Y-133170366D01*
X131579670Y-132855585D01*
X131093489Y-132530729D01*
X130520000Y-132416655D01*
X129946511Y-132530729D01*
X129460330Y-132855585D01*
X129135474Y-133341766D01*
X129021400Y-133915255D01*
X124424975Y-133915255D01*
X124186894Y-133339057D01*
X123727363Y-132878722D01*
X123126648Y-132629284D01*
X122476205Y-132628716D01*
X121875057Y-132877106D01*
X121414722Y-133336637D01*
X121165284Y-133937352D01*
X121164716Y-134587795D01*
X115836600Y-134587795D01*
X115836600Y-132386079D01*
X116064738Y-132938215D01*
X116524127Y-133398406D01*
X117124653Y-133647766D01*
X117774894Y-133648334D01*
X118375855Y-133400022D01*
X118836046Y-132940633D01*
X119085406Y-132340107D01*
X119085974Y-131689866D01*
X118837662Y-131088905D01*
X118378273Y-130628714D01*
X117777747Y-130379354D01*
X117127506Y-130378786D01*
X116526545Y-130627098D01*
X116066354Y-131086487D01*
X115836600Y-131639796D01*
X115836600Y-129931016D01*
X116668590Y-129931016D01*
X116724271Y-130161611D01*
X117207078Y-130329622D01*
X117717428Y-130300083D01*
X118051729Y-130161611D01*
X118107410Y-129931016D01*
X117388000Y-129211605D01*
X116668590Y-129931016D01*
X115836600Y-129931016D01*
X115836600Y-128851078D01*
X116090378Y-128851078D01*
X116119917Y-129361428D01*
X116258389Y-129695729D01*
X116488984Y-129751410D01*
X117208395Y-129032000D01*
X116488984Y-128312590D01*
X116258389Y-128368271D01*
X116090378Y-128851078D01*
X115836600Y-128851078D01*
X115836600Y-128132984D01*
X116668590Y-128132984D01*
X117388000Y-128852395D01*
X118107410Y-128132984D01*
X118051729Y-127902389D01*
X117568922Y-127734378D01*
X117058572Y-127763917D01*
X116724271Y-127902389D01*
X116668590Y-128132984D01*
X115836600Y-128132984D01*
X115836600Y-126629016D01*
X116668590Y-126629016D01*
X116724271Y-126859611D01*
X117207078Y-127027622D01*
X117717428Y-126998083D01*
X118051729Y-126859611D01*
X118107410Y-126629016D01*
X117388000Y-125909605D01*
X116668590Y-126629016D01*
X115836600Y-126629016D01*
X115836600Y-125549078D01*
X116090378Y-125549078D01*
X116119917Y-126059428D01*
X116258389Y-126393729D01*
X116488984Y-126449410D01*
X117208395Y-125730000D01*
X116488984Y-125010590D01*
X116258389Y-125066271D01*
X116090378Y-125549078D01*
X115836600Y-125549078D01*
X115836600Y-124830984D01*
X116668590Y-124830984D01*
X117388000Y-125550395D01*
X118107410Y-124830984D01*
X118051729Y-124600389D01*
X117568922Y-124432378D01*
X117058572Y-124461917D01*
X116724271Y-124600389D01*
X116668590Y-124830984D01*
X115836600Y-124830984D01*
X115836600Y-120669110D01*
X116905110Y-119600600D01*
X117077789Y-119600600D01*
X117027460Y-119650841D01*
X116878270Y-120010130D01*
X116877931Y-120399163D01*
X117026493Y-120758712D01*
X117119400Y-120851781D01*
X117119400Y-121983500D01*
X117121485Y-121993982D01*
X117119700Y-122004518D01*
X117149447Y-122134555D01*
X117175470Y-122265385D01*
X117181407Y-122274270D01*
X117183790Y-122284688D01*
X117261037Y-122393445D01*
X117335145Y-122504355D01*
X117344030Y-122510292D01*
X117350219Y-122519005D01*
X118494220Y-123599505D01*
X118607196Y-123670416D01*
X118718115Y-123744530D01*
X118728596Y-123746615D01*
X118737649Y-123752297D01*
X118869180Y-123774579D01*
X119000000Y-123800600D01*
X120661152Y-123800600D01*
X120802400Y-123902964D01*
X120802400Y-124492117D01*
X120789890Y-124483569D01*
X120538000Y-124432560D01*
X119238000Y-124432560D01*
X119002683Y-124476838D01*
X118786559Y-124615910D01*
X118641569Y-124828110D01*
X118590560Y-125080000D01*
X118590560Y-125242385D01*
X118517611Y-125066271D01*
X118287016Y-125010590D01*
X117567605Y-125730000D01*
X118287016Y-126449410D01*
X118517611Y-126393729D01*
X118590560Y-126184098D01*
X118590560Y-126380000D01*
X118634838Y-126615317D01*
X118773910Y-126831441D01*
X118986110Y-126976431D01*
X119238000Y-127027440D01*
X120538000Y-127027440D01*
X120773317Y-126983162D01*
X120802400Y-126964448D01*
X120802400Y-127794117D01*
X120789890Y-127785569D01*
X120538000Y-127734560D01*
X119238000Y-127734560D01*
X119002683Y-127778838D01*
X118786559Y-127917910D01*
X118641569Y-128130110D01*
X118590560Y-128382000D01*
X118590560Y-128544385D01*
X118517611Y-128368271D01*
X118287016Y-128312590D01*
X117567605Y-129032000D01*
X118287016Y-129751410D01*
X118517611Y-129695729D01*
X118590560Y-129486098D01*
X118590560Y-129682000D01*
X118634838Y-129917317D01*
X118773910Y-130133441D01*
X118986110Y-130278431D01*
X119238000Y-130329440D01*
X120538000Y-130329440D01*
X120773317Y-130285162D01*
X120989441Y-130146090D01*
X121134431Y-129933890D01*
X121167903Y-129768600D01*
X121233890Y-129768600D01*
X121955660Y-130490370D01*
X121955226Y-130987694D01*
X122203538Y-131588655D01*
X122662927Y-132048846D01*
X123263453Y-132298206D01*
X123913694Y-132298774D01*
X124514655Y-132050462D01*
X124974846Y-131591073D01*
X125224206Y-130990547D01*
X125224774Y-130340306D01*
X124976462Y-129739345D01*
X124517073Y-129279154D01*
X124481233Y-129264272D01*
X124514655Y-129250462D01*
X124974846Y-128791073D01*
X125224206Y-128190547D01*
X125224774Y-127540306D01*
X125112238Y-127267948D01*
X129029145Y-131184855D01*
X129268115Y-131344530D01*
X129550000Y-131400600D01*
X129745835Y-131400600D01*
X129823538Y-131588655D01*
X130282927Y-132048846D01*
X130883453Y-132298206D01*
X131533694Y-132298774D01*
X132134655Y-132050462D01*
X132594846Y-131591073D01*
X132844206Y-130990547D01*
X132844774Y-130340306D01*
X132596462Y-129739345D01*
X132407198Y-129549750D01*
X134749000Y-129549750D01*
X134749000Y-130253909D01*
X134845673Y-130487298D01*
X135024301Y-130665927D01*
X135257690Y-130762600D01*
X136114250Y-130762600D01*
X136273000Y-130603850D01*
X136273000Y-129391000D01*
X136527000Y-129391000D01*
X136527000Y-130603850D01*
X136685750Y-130762600D01*
X137542310Y-130762600D01*
X137775699Y-130665927D01*
X137954327Y-130487298D01*
X138051000Y-130253909D01*
X138051000Y-129549750D01*
X137892250Y-129391000D01*
X136527000Y-129391000D01*
X136273000Y-129391000D01*
X134907750Y-129391000D01*
X134749000Y-129549750D01*
X132407198Y-129549750D01*
X132137073Y-129279154D01*
X132101233Y-129264272D01*
X132134655Y-129250462D01*
X132594846Y-128791073D01*
X132844206Y-128190547D01*
X132844774Y-127540306D01*
X132596462Y-126939345D01*
X132137073Y-126479154D01*
X131536547Y-126229794D01*
X130886306Y-126229226D01*
X130285345Y-126477538D01*
X129825154Y-126936927D01*
X129575794Y-127537453D01*
X129575226Y-128187694D01*
X129823538Y-128788655D01*
X130282927Y-129248846D01*
X130318767Y-129263728D01*
X130285345Y-129277538D01*
X129825154Y-129736927D01*
X129778058Y-129850348D01*
X126043233Y-126115523D01*
X127878703Y-126115523D01*
X127977302Y-126382325D01*
X128586842Y-126608761D01*
X129236637Y-126584701D01*
X129725218Y-126382325D01*
X129823817Y-126115523D01*
X128851260Y-125142965D01*
X127878703Y-126115523D01*
X126043233Y-126115523D01*
X124836600Y-124908890D01*
X124836600Y-124698942D01*
X127205859Y-124698942D01*
X127229919Y-125348737D01*
X127432295Y-125837318D01*
X127699097Y-125935917D01*
X128671655Y-124963360D01*
X129030865Y-124963360D01*
X130003423Y-125935917D01*
X130270225Y-125837318D01*
X130496661Y-125227778D01*
X130472601Y-124577983D01*
X130270225Y-124089402D01*
X130003423Y-123990803D01*
X129030865Y-124963360D01*
X128671655Y-124963360D01*
X127699097Y-123990803D01*
X127432295Y-124089402D01*
X127205859Y-124698942D01*
X124836600Y-124698942D01*
X124836600Y-123928165D01*
X125024655Y-123850462D01*
X125063988Y-123811197D01*
X127878703Y-123811197D01*
X128851260Y-124783755D01*
X129823817Y-123811197D01*
X129725218Y-123544395D01*
X129115678Y-123317959D01*
X128465883Y-123342019D01*
X127977302Y-123544395D01*
X127878703Y-123811197D01*
X125063988Y-123811197D01*
X125484846Y-123391073D01*
X125734206Y-122790547D01*
X125734774Y-122140306D01*
X125554537Y-121704100D01*
X126099132Y-121704100D01*
X125958770Y-122042130D01*
X125958431Y-122431163D01*
X126106993Y-122790712D01*
X126381841Y-123066040D01*
X126741130Y-123215230D01*
X127130163Y-123215569D01*
X127489712Y-123067007D01*
X127519170Y-123037600D01*
X134211890Y-123037600D01*
X134823109Y-123648819D01*
X134716655Y-124184000D01*
X134830729Y-124757489D01*
X135155585Y-125243670D01*
X135470366Y-125454000D01*
X135155585Y-125664330D01*
X134830729Y-126150511D01*
X134716655Y-126724000D01*
X134830729Y-127297489D01*
X135155585Y-127783670D01*
X135177780Y-127798500D01*
X135024301Y-127862073D01*
X134845673Y-128040702D01*
X134749000Y-128274091D01*
X134749000Y-128978250D01*
X134907750Y-129137000D01*
X136273000Y-129137000D01*
X136273000Y-129117000D01*
X136527000Y-129117000D01*
X136527000Y-129137000D01*
X137892250Y-129137000D01*
X138051000Y-128978250D01*
X138051000Y-128274091D01*
X137954327Y-128040702D01*
X137775699Y-127862073D01*
X137622220Y-127798500D01*
X137644415Y-127783670D01*
X137969271Y-127297489D01*
X138083345Y-126724000D01*
X137976891Y-126188819D01*
X139512855Y-124652855D01*
X139562883Y-124577983D01*
X139672530Y-124413885D01*
X139684382Y-124354301D01*
X139728601Y-124132000D01*
X139728600Y-124131995D01*
X139728600Y-116894000D01*
X139672530Y-116612115D01*
X139512855Y-116373145D01*
X137238430Y-114098720D01*
X137883795Y-114099284D01*
X138484943Y-113850894D01*
X138551574Y-113784379D01*
X138635910Y-113915441D01*
X138848110Y-114060431D01*
X139100000Y-114111440D01*
X141100000Y-114111440D01*
X141335317Y-114067162D01*
X141551441Y-113928090D01*
X141696431Y-113715890D01*
X141747440Y-113464000D01*
X141747440Y-111464000D01*
X141703162Y-111228683D01*
X141564090Y-111012559D01*
X141351890Y-110867569D01*
X141100000Y-110816560D01*
X139100000Y-110816560D01*
X138864683Y-110860838D01*
X138648559Y-110999910D01*
X138551090Y-111142561D01*
X138487363Y-111078722D01*
X137886648Y-110829284D01*
X137236205Y-110828716D01*
X136635057Y-111077106D01*
X136174722Y-111536637D01*
X135925284Y-112137352D01*
X135924718Y-112785008D01*
X134482855Y-111343145D01*
X134243885Y-111183470D01*
X133962000Y-111127400D01*
X132874165Y-111127400D01*
X132796462Y-110939345D01*
X132337073Y-110479154D01*
X131736547Y-110229794D01*
X131086306Y-110229226D01*
X130485345Y-110477538D01*
X130025154Y-110936927D01*
X129946063Y-111127400D01*
X128905110Y-111127400D01*
X127736600Y-109958890D01*
X127736600Y-109691652D01*
X127968001Y-109537034D01*
X127985673Y-109579698D01*
X128164301Y-109758327D01*
X128397690Y-109855000D01*
X129254250Y-109855000D01*
X129413000Y-109696250D01*
X129413000Y-108331000D01*
X129667000Y-108331000D01*
X129667000Y-109696250D01*
X129825750Y-109855000D01*
X130682310Y-109855000D01*
X130915699Y-109758327D01*
X131094327Y-109579698D01*
X131191000Y-109346309D01*
X131191000Y-108637305D01*
X139514674Y-108637305D01*
X139801043Y-109330372D01*
X140330839Y-109861093D01*
X141023405Y-110148672D01*
X141773305Y-110149326D01*
X142466372Y-109862957D01*
X142997093Y-109333161D01*
X143284672Y-108640595D01*
X143285326Y-107890695D01*
X142998957Y-107197628D01*
X142469161Y-106666907D01*
X141776595Y-106379328D01*
X141026695Y-106378674D01*
X140333628Y-106665043D01*
X139802907Y-107194839D01*
X139515328Y-107887405D01*
X139514674Y-108637305D01*
X131191000Y-108637305D01*
X131191000Y-108489750D01*
X131032250Y-108331000D01*
X129667000Y-108331000D01*
X129413000Y-108331000D01*
X129393000Y-108331000D01*
X129393000Y-108077000D01*
X129413000Y-108077000D01*
X129413000Y-106711750D01*
X129667000Y-106711750D01*
X129667000Y-108077000D01*
X131032250Y-108077000D01*
X131191000Y-107918250D01*
X131191000Y-107061691D01*
X131094327Y-106828302D01*
X130915699Y-106649673D01*
X130682310Y-106553000D01*
X129825750Y-106553000D01*
X129667000Y-106711750D01*
X129413000Y-106711750D01*
X129254250Y-106553000D01*
X128397690Y-106553000D01*
X128164301Y-106649673D01*
X127985673Y-106828302D01*
X127968001Y-106870966D01*
X127631810Y-106646330D01*
X127000000Y-106520655D01*
X126368190Y-106646330D01*
X125832567Y-107004222D01*
X125474675Y-107539845D01*
X125349000Y-108171655D01*
X125349000Y-108236345D01*
X125474675Y-108868155D01*
X125832567Y-109403778D01*
X126263400Y-109691652D01*
X126263400Y-110264000D01*
X126319470Y-110545885D01*
X126479145Y-110784855D01*
X127531790Y-111837500D01*
X126987145Y-112382145D01*
X126827470Y-112621115D01*
X126771400Y-112903000D01*
X126771400Y-116153890D01*
X125274705Y-117650585D01*
X125424206Y-117290547D01*
X125424774Y-116640306D01*
X125176462Y-116039345D01*
X124717073Y-115579154D01*
X124116547Y-115329794D01*
X124045340Y-115329732D01*
X123952534Y-115236926D01*
X124219387Y-115138264D01*
X124445908Y-114528539D01*
X124421856Y-113878540D01*
X124242506Y-113445550D01*
X124714655Y-113250462D01*
X125174846Y-112791073D01*
X125424206Y-112190547D01*
X125424774Y-111540306D01*
X125176462Y-110939345D01*
X124717073Y-110479154D01*
X124116547Y-110229794D01*
X123466306Y-110229226D01*
X122865345Y-110477538D01*
X122405154Y-110936927D01*
X122155794Y-111537453D01*
X122155226Y-112187694D01*
X122353455Y-112667446D01*
X122021600Y-112804905D01*
X122021600Y-112141000D01*
X121965530Y-111859115D01*
X121805855Y-111620145D01*
X120535855Y-110350145D01*
X120296885Y-110190470D01*
X120015000Y-110134400D01*
X117576600Y-110134400D01*
X117576600Y-109691652D01*
X117808001Y-109537034D01*
X117825673Y-109579698D01*
X118004301Y-109758327D01*
X118237690Y-109855000D01*
X119094250Y-109855000D01*
X119253000Y-109696250D01*
X119253000Y-108331000D01*
X119507000Y-108331000D01*
X119507000Y-109696250D01*
X119665750Y-109855000D01*
X120522310Y-109855000D01*
X120755699Y-109758327D01*
X120934327Y-109579698D01*
X121031000Y-109346309D01*
X121031000Y-108489750D01*
X120872250Y-108331000D01*
X119507000Y-108331000D01*
X119253000Y-108331000D01*
X119233000Y-108331000D01*
X119233000Y-108077000D01*
X119253000Y-108077000D01*
X119253000Y-106711750D01*
X119507000Y-106711750D01*
X119507000Y-108077000D01*
X120872250Y-108077000D01*
X121031000Y-107918250D01*
X121031000Y-107061691D01*
X120934327Y-106828302D01*
X120755699Y-106649673D01*
X120522310Y-106553000D01*
X119665750Y-106553000D01*
X119507000Y-106711750D01*
X119253000Y-106711750D01*
X119094250Y-106553000D01*
X118237690Y-106553000D01*
X118004301Y-106649673D01*
X117825673Y-106828302D01*
X117808001Y-106870966D01*
X117471810Y-106646330D01*
X116840000Y-106520655D01*
X116208190Y-106646330D01*
X115672567Y-107004222D01*
X115314675Y-107539845D01*
X115189000Y-108171655D01*
X115189000Y-108236345D01*
X115314675Y-108868155D01*
X115672567Y-109403778D01*
X116103400Y-109691652D01*
X116103400Y-110744000D01*
X116159470Y-111025885D01*
X116319145Y-111264855D01*
X116446145Y-111391855D01*
X116685115Y-111551530D01*
X116967000Y-111607600D01*
X119709890Y-111607600D01*
X120548400Y-112446110D01*
X120548400Y-112521783D01*
X120465264Y-112466233D01*
X119916113Y-112357000D01*
X119859887Y-112357000D01*
X119310736Y-112466233D01*
X118845189Y-112777302D01*
X118534120Y-113242849D01*
X118424887Y-113792000D01*
X118534120Y-114341151D01*
X118845189Y-114806698D01*
X119227275Y-115062000D01*
X118845189Y-115317302D01*
X118534120Y-115782849D01*
X118424887Y-116332000D01*
X118530987Y-116865400D01*
X116383110Y-116865400D01*
X113661198Y-114143488D01*
X113731113Y-113792000D01*
X113621880Y-113242849D01*
X113310811Y-112777302D01*
X112845264Y-112466233D01*
X112296113Y-112357000D01*
X112239887Y-112357000D01*
X111690736Y-112466233D01*
X111225189Y-112777302D01*
X110914120Y-113242849D01*
X110804887Y-113792000D01*
X110914120Y-114341151D01*
X111225189Y-114806698D01*
X111607275Y-115062000D01*
X111225189Y-115317302D01*
X110914120Y-115782849D01*
X110804887Y-116332000D01*
X110914120Y-116881151D01*
X111225189Y-117346698D01*
X111607275Y-117602000D01*
X111225189Y-117857302D01*
X110914120Y-118322849D01*
X110804887Y-118872000D01*
X110914120Y-119421151D01*
X111225189Y-119886698D01*
X111629703Y-120156986D01*
X111412866Y-120259611D01*
X111036959Y-120674577D01*
X110876096Y-121062961D01*
X110998085Y-121285000D01*
X112141000Y-121285000D01*
X112141000Y-121265000D01*
X112395000Y-121265000D01*
X112395000Y-121285000D01*
X113537915Y-121285000D01*
X113659904Y-121062961D01*
X113499041Y-120674577D01*
X113123134Y-120259611D01*
X112906297Y-120156986D01*
X113310811Y-119886698D01*
X113621880Y-119421151D01*
X113731113Y-118872000D01*
X113621880Y-118322849D01*
X113310811Y-117857302D01*
X112928725Y-117602000D01*
X113310811Y-117346698D01*
X113621880Y-116881151D01*
X113731113Y-116332000D01*
X113722378Y-116288088D01*
X115557145Y-118122855D01*
X115796115Y-118282530D01*
X116078000Y-118338600D01*
X116085947Y-118338600D01*
X116079145Y-118343145D01*
X114579145Y-119843145D01*
X114419470Y-120082115D01*
X114363400Y-120364000D01*
X114363400Y-134382770D01*
X112968330Y-135777840D01*
X112412965Y-135777840D01*
X112335262Y-135589785D01*
X111875873Y-135129594D01*
X111275347Y-134880234D01*
X110625106Y-134879666D01*
X110024145Y-135127978D01*
X109563954Y-135587367D01*
X109314594Y-136187893D01*
X109314026Y-136838134D01*
X109562338Y-137439095D01*
X110021727Y-137899286D01*
X110622253Y-138148646D01*
X111272494Y-138149214D01*
X111873455Y-137900902D01*
X112333646Y-137441513D01*
X112412737Y-137251040D01*
X112536840Y-137251040D01*
X112536840Y-138737440D01*
X112592910Y-139019325D01*
X112752585Y-139258295D01*
X115679145Y-142184855D01*
X115918115Y-142344530D01*
X116200000Y-142400600D01*
X117125835Y-142400600D01*
X117189219Y-142554000D01*
X109469931Y-142554000D01*
X108720544Y-142404938D01*
X107259062Y-140943456D01*
X107198165Y-140637305D01*
X107514674Y-140637305D01*
X107801043Y-141330372D01*
X108330839Y-141861093D01*
X109023405Y-142148672D01*
X109773305Y-142149326D01*
X110466372Y-141862957D01*
X110997093Y-141333161D01*
X111284672Y-140640595D01*
X111285326Y-139890695D01*
X110998957Y-139197628D01*
X110469161Y-138666907D01*
X109776595Y-138379328D01*
X109026695Y-138378674D01*
X108333628Y-138665043D01*
X107802907Y-139194839D01*
X107515328Y-139887405D01*
X107514674Y-140637305D01*
X107198165Y-140637305D01*
X107110000Y-140194069D01*
X107110000Y-132337254D01*
X109314026Y-132337254D01*
X109562338Y-132938215D01*
X110021727Y-133398406D01*
X110622253Y-133647766D01*
X111272494Y-133648334D01*
X111873455Y-133400022D01*
X112333646Y-132940633D01*
X112583006Y-132340107D01*
X112583574Y-131689866D01*
X112335262Y-131088905D01*
X111875873Y-130628714D01*
X111275347Y-130379354D01*
X110625106Y-130378786D01*
X110024145Y-130627098D01*
X109563954Y-131086487D01*
X109314594Y-131687013D01*
X109314026Y-132337254D01*
X107110000Y-132337254D01*
X107110000Y-128270000D01*
X107282655Y-128270000D01*
X107408330Y-128901810D01*
X107766222Y-129437433D01*
X108301845Y-129795325D01*
X108933655Y-129921000D01*
X108998345Y-129921000D01*
X109630155Y-129795325D01*
X110165778Y-129437433D01*
X110523670Y-128901810D01*
X110649345Y-128270000D01*
X110621100Y-128128000D01*
X111732560Y-128128000D01*
X111732560Y-129428000D01*
X111776838Y-129663317D01*
X111915910Y-129879441D01*
X112128110Y-130024431D01*
X112380000Y-130075440D01*
X113680000Y-130075440D01*
X113915317Y-130031162D01*
X114131441Y-129892090D01*
X114276431Y-129679890D01*
X114327440Y-129428000D01*
X114327440Y-128128000D01*
X114283162Y-127892683D01*
X114144090Y-127676559D01*
X113931890Y-127531569D01*
X113680000Y-127480560D01*
X113517615Y-127480560D01*
X113693729Y-127407611D01*
X113749410Y-127177016D01*
X113030000Y-126457605D01*
X112310590Y-127177016D01*
X112366271Y-127407611D01*
X112575902Y-127480560D01*
X112380000Y-127480560D01*
X112144683Y-127524838D01*
X111928559Y-127663910D01*
X111783569Y-127876110D01*
X111732560Y-128128000D01*
X110621100Y-128128000D01*
X110523670Y-127638190D01*
X110299034Y-127301999D01*
X110341698Y-127284327D01*
X110520327Y-127105699D01*
X110617000Y-126872310D01*
X110617000Y-126097078D01*
X111732378Y-126097078D01*
X111761917Y-126607428D01*
X111900389Y-126941729D01*
X112130984Y-126997410D01*
X112850395Y-126278000D01*
X113209605Y-126278000D01*
X113929016Y-126997410D01*
X114159611Y-126941729D01*
X114327622Y-126458922D01*
X114298083Y-125948572D01*
X114159611Y-125614271D01*
X113929016Y-125558590D01*
X113209605Y-126278000D01*
X112850395Y-126278000D01*
X112130984Y-125558590D01*
X111900389Y-125614271D01*
X111732378Y-126097078D01*
X110617000Y-126097078D01*
X110617000Y-126015750D01*
X110458250Y-125857000D01*
X109093000Y-125857000D01*
X109093000Y-125877000D01*
X108839000Y-125877000D01*
X108839000Y-125857000D01*
X107473750Y-125857000D01*
X107315000Y-126015750D01*
X107315000Y-126872310D01*
X107411673Y-127105699D01*
X107590302Y-127284327D01*
X107632966Y-127301999D01*
X107408330Y-127638190D01*
X107282655Y-128270000D01*
X107110000Y-128270000D01*
X107110000Y-124587690D01*
X107315000Y-124587690D01*
X107315000Y-125444250D01*
X107473750Y-125603000D01*
X108839000Y-125603000D01*
X108839000Y-124237750D01*
X109093000Y-124237750D01*
X109093000Y-125603000D01*
X110458250Y-125603000D01*
X110617000Y-125444250D01*
X110617000Y-125378984D01*
X112310590Y-125378984D01*
X113030000Y-126098395D01*
X113749410Y-125378984D01*
X113693729Y-125148389D01*
X113210922Y-124980378D01*
X112700572Y-125009917D01*
X112366271Y-125148389D01*
X112310590Y-125378984D01*
X110617000Y-125378984D01*
X110617000Y-124587690D01*
X110520327Y-124354301D01*
X110341698Y-124175673D01*
X110108309Y-124079000D01*
X109251750Y-124079000D01*
X109093000Y-124237750D01*
X108839000Y-124237750D01*
X108680250Y-124079000D01*
X107823691Y-124079000D01*
X107590302Y-124175673D01*
X107411673Y-124354301D01*
X107315000Y-124587690D01*
X107110000Y-124587690D01*
X107110000Y-121761039D01*
X110876096Y-121761039D01*
X111036959Y-122149423D01*
X111412866Y-122564389D01*
X111918959Y-122803914D01*
X112141000Y-122682629D01*
X112141000Y-121539000D01*
X112395000Y-121539000D01*
X112395000Y-122682629D01*
X112617041Y-122803914D01*
X113123134Y-122564389D01*
X113499041Y-122149423D01*
X113659904Y-121761039D01*
X113537915Y-121539000D01*
X112395000Y-121539000D01*
X112141000Y-121539000D01*
X110998085Y-121539000D01*
X110876096Y-121761039D01*
X107110000Y-121761039D01*
X107110000Y-118110000D01*
X107282655Y-118110000D01*
X107408330Y-118741810D01*
X107766222Y-119277433D01*
X108301845Y-119635325D01*
X108933655Y-119761000D01*
X108998345Y-119761000D01*
X109630155Y-119635325D01*
X110165778Y-119277433D01*
X110523670Y-118741810D01*
X110649345Y-118110000D01*
X110523670Y-117478190D01*
X110299034Y-117141999D01*
X110341698Y-117124327D01*
X110520327Y-116945699D01*
X110617000Y-116712310D01*
X110617000Y-115855750D01*
X110458250Y-115697000D01*
X109093000Y-115697000D01*
X109093000Y-115717000D01*
X108839000Y-115717000D01*
X108839000Y-115697000D01*
X107473750Y-115697000D01*
X107315000Y-115855750D01*
X107315000Y-116712310D01*
X107411673Y-116945699D01*
X107590302Y-117124327D01*
X107632966Y-117141999D01*
X107408330Y-117478190D01*
X107282655Y-118110000D01*
X107110000Y-118110000D01*
X107110000Y-114427690D01*
X107315000Y-114427690D01*
X107315000Y-115284250D01*
X107473750Y-115443000D01*
X108839000Y-115443000D01*
X108839000Y-114077750D01*
X109093000Y-114077750D01*
X109093000Y-115443000D01*
X110458250Y-115443000D01*
X110617000Y-115284250D01*
X110617000Y-114427690D01*
X110520327Y-114194301D01*
X110341698Y-114015673D01*
X110108309Y-113919000D01*
X109251750Y-113919000D01*
X109093000Y-114077750D01*
X108839000Y-114077750D01*
X108680250Y-113919000D01*
X107823691Y-113919000D01*
X107590302Y-114015673D01*
X107411673Y-114194301D01*
X107315000Y-114427690D01*
X107110000Y-114427690D01*
X107110000Y-108637305D01*
X107514674Y-108637305D01*
X107801043Y-109330372D01*
X108330839Y-109861093D01*
X109023405Y-110148672D01*
X109773305Y-110149326D01*
X110466372Y-109862957D01*
X110997093Y-109333161D01*
X111284672Y-108640595D01*
X111285326Y-107890695D01*
X110998957Y-107197628D01*
X110469161Y-106666907D01*
X109776595Y-106379328D01*
X109026695Y-106378674D01*
X108333628Y-106665043D01*
X107802907Y-107194839D01*
X107515328Y-107887405D01*
X107514674Y-108637305D01*
X107110000Y-108637305D01*
X107110000Y-108333931D01*
X107259062Y-107584544D01*
X108720544Y-106123062D01*
X109469931Y-105974000D01*
X141330069Y-105974000D01*
X142079456Y-106123062D01*
G36*
X122993748Y-114249858D02*
X122979605Y-114264000D01*
X122993748Y-114278143D01*
X122814143Y-114457748D01*
X122800000Y-114443605D01*
X122785858Y-114457748D01*
X122606253Y-114278143D01*
X122620395Y-114264000D01*
X122606253Y-114249858D01*
X122785858Y-114070253D01*
X122800000Y-114084395D01*
X122814143Y-114070253D01*
X122993748Y-114249858D01*
X122993748Y-114249858D01*
G37*
X122993748Y-114249858D02*
X122979605Y-114264000D01*
X122993748Y-114278143D01*
X122814143Y-114457748D01*
X122800000Y-114443605D01*
X122785858Y-114457748D01*
X122606253Y-114278143D01*
X122620395Y-114264000D01*
X122606253Y-114249858D01*
X122785858Y-114070253D01*
X122800000Y-114084395D01*
X122814143Y-114070253D01*
X122993748Y-114249858D01*
M02*
