G04 #@! TF.FileFunction,Soldermask,Top*
%FSLAX46Y46*%
G04 Gerber Fmt 4.6, Leading zero omitted, Abs format (unit mm)*
G04 Created by KiCad (PCBNEW 4.0.1-stable) date 10/18/2016 5:23:33 PM*
%MOMM*%
G01*
G04 APERTURE LIST*
%ADD10C,0.100000*%
%ADD11R,1.700000X1.700000*%
%ADD12C,1.700000*%
%ADD13R,2.400000X2.400000*%
%ADD14C,2.400000*%
%ADD15O,2.000000X2.000000*%
%ADD16R,2.432000X2.432000*%
%ADD17O,2.432000X2.432000*%
%ADD18C,2.398980*%
%ADD19R,2.432000X2.127200*%
%ADD20O,2.432000X2.127200*%
%ADD21R,2.127200X2.432000*%
%ADD22O,2.127200X2.432000*%
G04 APERTURE END LIST*
D10*
D11*
X119888000Y-125730000D03*
D12*
X117388000Y-125730000D03*
D11*
X113030000Y-128778000D03*
D12*
X113030000Y-126278000D03*
D11*
X119888000Y-129032000D03*
D12*
X117388000Y-129032000D03*
D13*
X140100000Y-112464000D03*
D14*
X137560000Y-112464000D03*
D15*
X112268000Y-113792000D03*
X112268000Y-116332000D03*
X112268000Y-118872000D03*
X112268000Y-121412000D03*
X119888000Y-121412000D03*
X119888000Y-118872000D03*
X119888000Y-116332000D03*
X119888000Y-113792000D03*
D16*
X119380000Y-108204000D03*
D17*
X116840000Y-108204000D03*
D16*
X129540000Y-108204000D03*
D17*
X127000000Y-108204000D03*
D16*
X108966000Y-125730000D03*
D17*
X108966000Y-128270000D03*
D16*
X108966000Y-115570000D03*
D17*
X108966000Y-118110000D03*
D18*
X123590000Y-130664000D03*
X131210000Y-130664000D03*
X118590000Y-138764000D03*
X126210000Y-138764000D03*
X126210000Y-141664000D03*
X118590000Y-141664000D03*
X123790000Y-111864000D03*
X131410000Y-111864000D03*
X131210000Y-127864000D03*
X123590000Y-127864000D03*
X131410000Y-116964000D03*
X123790000Y-116964000D03*
X117451200Y-132013560D03*
X110948800Y-136514440D03*
X117451200Y-136514440D03*
X110948800Y-132013560D03*
D19*
X136400000Y-129264000D03*
D20*
X136400000Y-126724000D03*
X136400000Y-124184000D03*
X136400000Y-121644000D03*
X136400000Y-119104000D03*
X136400000Y-116564000D03*
D14*
X122800000Y-134264000D03*
X122800000Y-114264000D03*
D18*
X128851260Y-124963360D03*
X124100000Y-122464000D03*
X128851260Y-119964640D03*
D21*
X135600000Y-134100000D03*
D22*
X133060000Y-134100000D03*
X130520000Y-134100000D03*
M02*
