M48
INCH,TZ
T1C0.013
T2C0.031
T3C0.032
T4C0.039
T5C0.039
T6C0.040
T7C0.098
%
G90
G05
T1
X46400Y-47325
X49975Y-47200
X49975Y-48125
T2
X44200Y-44800
X44200Y-45800
X44200Y-46800
X44200Y-47800
X44500Y-50700
X47200Y-44800
X47200Y-45800
X47200Y-46800
X47200Y-47800
X47200Y-49500
X47200Y-50800
T3
X44500Y-49716
X46216Y-49500
X46216Y-50800
X46689Y-54631
X46689Y-55773
X48657Y-50340
X48657Y-51443
X48736Y-44041
X48736Y-46049
X49689Y-54631
X49689Y-55773
X51657Y-50340
X51657Y-51443
X51736Y-44041
X51736Y-46049
T4
X48346Y-44986
X48346Y-52860
X48858Y-48214
X50729Y-47230
X50729Y-49198
T5
X43681Y-51974
X43681Y-53746
X46241Y-51974
X46241Y-53746
X54157Y-44277
X55157Y-44277
T6
X42900Y-45500
X42900Y-46500
X42900Y-49500
X42900Y-50500
X46000Y-42600
X47000Y-42600
X50000Y-42600
X51000Y-42600
X51386Y-52795
X52386Y-52795
X53386Y-52795
X53701Y-45891
X53701Y-46891
X53701Y-47891
X53701Y-48891
X53701Y-49891
X53701Y-50891
T7
X43071Y-42624
X43071Y-55222
X55669Y-42624
X55669Y-55222
T0
M30
