G04 #@! TF.FileFunction,Legend,Bot*
%FSLAX46Y46*%
G04 Gerber Fmt 4.6, Leading zero omitted, Abs format (unit mm)*
G04 Created by KiCad (PCBNEW 4.0.1-stable) date 10/18/2016 5:23:33 PM*
%MOMM*%
G01*
G04 APERTURE LIST*
%ADD10C,0.100000*%
%ADD11C,0.150000*%
%ADD12C,0.200000*%
G04 APERTURE END LIST*
D10*
D11*
X142614286Y-137885714D02*
X141947619Y-137695238D01*
X142423810Y-137504761D01*
X141947619Y-137314285D01*
X142614286Y-137123809D01*
X142614286Y-136838095D02*
X141947619Y-136647619D01*
X142423810Y-136457142D01*
X141947619Y-136266666D01*
X142614286Y-136076190D01*
X142614286Y-135790476D02*
X141947619Y-135600000D01*
X142423810Y-135409523D01*
X141947619Y-135219047D01*
X142614286Y-135028571D01*
X142042857Y-134647619D02*
X141995238Y-134600000D01*
X141947619Y-134647619D01*
X141995238Y-134695238D01*
X142042857Y-134647619D01*
X141947619Y-134647619D01*
X141995238Y-133790476D02*
X141947619Y-133885714D01*
X141947619Y-134076191D01*
X141995238Y-134171429D01*
X142090476Y-134219048D01*
X142471429Y-134219048D01*
X142566667Y-134171429D01*
X142614286Y-134076191D01*
X142614286Y-133885714D01*
X142566667Y-133790476D01*
X142471429Y-133742857D01*
X142376190Y-133742857D01*
X142280952Y-134219048D01*
X142614286Y-133314286D02*
X141947619Y-133314286D01*
X142519048Y-133314286D02*
X142566667Y-133266667D01*
X142614286Y-133171429D01*
X142614286Y-133028571D01*
X142566667Y-132933333D01*
X142471429Y-132885714D01*
X141947619Y-132885714D01*
X142614286Y-132504762D02*
X141947619Y-132266667D01*
X142614286Y-132028571D01*
X141995238Y-131266666D02*
X141947619Y-131361904D01*
X141947619Y-131552381D01*
X141995238Y-131647619D01*
X142090476Y-131695238D01*
X142471429Y-131695238D01*
X142566667Y-131647619D01*
X142614286Y-131552381D01*
X142614286Y-131361904D01*
X142566667Y-131266666D01*
X142471429Y-131219047D01*
X142376190Y-131219047D01*
X142280952Y-131695238D01*
X141947619Y-130647619D02*
X141995238Y-130742857D01*
X142090476Y-130790476D01*
X142947619Y-130790476D01*
X141947619Y-130123809D02*
X141995238Y-130219047D01*
X142042857Y-130266666D01*
X142138095Y-130314285D01*
X142423810Y-130314285D01*
X142519048Y-130266666D01*
X142566667Y-130219047D01*
X142614286Y-130123809D01*
X142614286Y-129980951D01*
X142566667Y-129885713D01*
X142519048Y-129838094D01*
X142423810Y-129790475D01*
X142138095Y-129790475D01*
X142042857Y-129838094D01*
X141995238Y-129885713D01*
X141947619Y-129980951D01*
X141947619Y-130123809D01*
X141947619Y-129219047D02*
X141995238Y-129314285D01*
X142042857Y-129361904D01*
X142138095Y-129409523D01*
X142423810Y-129409523D01*
X142519048Y-129361904D01*
X142566667Y-129314285D01*
X142614286Y-129219047D01*
X142614286Y-129076189D01*
X142566667Y-128980951D01*
X142519048Y-128933332D01*
X142423810Y-128885713D01*
X142138095Y-128885713D01*
X142042857Y-128933332D01*
X141995238Y-128980951D01*
X141947619Y-129076189D01*
X141947619Y-129219047D01*
X142614286Y-128457142D02*
X141614286Y-128457142D01*
X142566667Y-128457142D02*
X142614286Y-128361904D01*
X142614286Y-128171427D01*
X142566667Y-128076189D01*
X142519048Y-128028570D01*
X142423810Y-127980951D01*
X142138095Y-127980951D01*
X142042857Y-128028570D01*
X141995238Y-128076189D01*
X141947619Y-128171427D01*
X141947619Y-128361904D01*
X141995238Y-128457142D01*
X141947619Y-127409523D02*
X141995238Y-127504761D01*
X142042857Y-127552380D01*
X142138095Y-127599999D01*
X142423810Y-127599999D01*
X142519048Y-127552380D01*
X142566667Y-127504761D01*
X142614286Y-127409523D01*
X142614286Y-127266665D01*
X142566667Y-127171427D01*
X142519048Y-127123808D01*
X142423810Y-127076189D01*
X142138095Y-127076189D01*
X142042857Y-127123808D01*
X141995238Y-127171427D01*
X141947619Y-127266665D01*
X141947619Y-127409523D01*
X142614286Y-126647618D02*
X141947619Y-126647618D01*
X142519048Y-126647618D02*
X142566667Y-126599999D01*
X142614286Y-126504761D01*
X142614286Y-126361903D01*
X142566667Y-126266665D01*
X142471429Y-126219046D01*
X141947619Y-126219046D01*
X141947619Y-125599999D02*
X141995238Y-125695237D01*
X142090476Y-125742856D01*
X142947619Y-125742856D01*
X141947619Y-125219046D02*
X142614286Y-125219046D01*
X142947619Y-125219046D02*
X142900000Y-125266665D01*
X142852381Y-125219046D01*
X142900000Y-125171427D01*
X142947619Y-125219046D01*
X142852381Y-125219046D01*
X142614286Y-124742856D02*
X141947619Y-124742856D01*
X142519048Y-124742856D02*
X142566667Y-124695237D01*
X142614286Y-124599999D01*
X142614286Y-124457141D01*
X142566667Y-124361903D01*
X142471429Y-124314284D01*
X141947619Y-124314284D01*
X141995238Y-123457141D02*
X141947619Y-123552379D01*
X141947619Y-123742856D01*
X141995238Y-123838094D01*
X142090476Y-123885713D01*
X142471429Y-123885713D01*
X142566667Y-123838094D01*
X142614286Y-123742856D01*
X142614286Y-123552379D01*
X142566667Y-123457141D01*
X142471429Y-123409522D01*
X142376190Y-123409522D01*
X142280952Y-123885713D01*
X142042857Y-122980951D02*
X141995238Y-122933332D01*
X141947619Y-122980951D01*
X141995238Y-123028570D01*
X142042857Y-122980951D01*
X141947619Y-122980951D01*
X141995238Y-122076189D02*
X141947619Y-122171427D01*
X141947619Y-122361904D01*
X141995238Y-122457142D01*
X142042857Y-122504761D01*
X142138095Y-122552380D01*
X142423810Y-122552380D01*
X142519048Y-122504761D01*
X142566667Y-122457142D01*
X142614286Y-122361904D01*
X142614286Y-122171427D01*
X142566667Y-122076189D01*
X141947619Y-121504761D02*
X141995238Y-121599999D01*
X142042857Y-121647618D01*
X142138095Y-121695237D01*
X142423810Y-121695237D01*
X142519048Y-121647618D01*
X142566667Y-121599999D01*
X142614286Y-121504761D01*
X142614286Y-121361903D01*
X142566667Y-121266665D01*
X142519048Y-121219046D01*
X142423810Y-121171427D01*
X142138095Y-121171427D01*
X142042857Y-121219046D01*
X141995238Y-121266665D01*
X141947619Y-121361903D01*
X141947619Y-121504761D01*
X141947619Y-120742856D02*
X142614286Y-120742856D01*
X142519048Y-120742856D02*
X142566667Y-120695237D01*
X142614286Y-120599999D01*
X142614286Y-120457141D01*
X142566667Y-120361903D01*
X142471429Y-120314284D01*
X141947619Y-120314284D01*
X142471429Y-120314284D02*
X142566667Y-120266665D01*
X142614286Y-120171427D01*
X142614286Y-120028570D01*
X142566667Y-119933332D01*
X142471429Y-119885713D01*
X141947619Y-119885713D01*
X142995238Y-118695237D02*
X141709524Y-119552380D01*
X141947619Y-118361904D02*
X142614286Y-118361904D01*
X142519048Y-118361904D02*
X142566667Y-118314285D01*
X142614286Y-118219047D01*
X142614286Y-118076189D01*
X142566667Y-117980951D01*
X142471429Y-117933332D01*
X141947619Y-117933332D01*
X142471429Y-117933332D02*
X142566667Y-117885713D01*
X142614286Y-117790475D01*
X142614286Y-117647618D01*
X142566667Y-117552380D01*
X142471429Y-117504761D01*
X141947619Y-117504761D01*
X141947619Y-117028571D02*
X142614286Y-117028571D01*
X142947619Y-117028571D02*
X142900000Y-117076190D01*
X142852381Y-117028571D01*
X142900000Y-116980952D01*
X142947619Y-117028571D01*
X142852381Y-117028571D01*
X142614286Y-116552381D02*
X141947619Y-116552381D01*
X142519048Y-116552381D02*
X142566667Y-116504762D01*
X142614286Y-116409524D01*
X142614286Y-116266666D01*
X142566667Y-116171428D01*
X142471429Y-116123809D01*
X141947619Y-116123809D01*
X141947619Y-115647619D02*
X142614286Y-115647619D01*
X142947619Y-115647619D02*
X142900000Y-115695238D01*
X142852381Y-115647619D01*
X142900000Y-115600000D01*
X142947619Y-115647619D01*
X142852381Y-115647619D01*
X141947619Y-115171429D02*
X142614286Y-115171429D01*
X142519048Y-115171429D02*
X142566667Y-115123810D01*
X142614286Y-115028572D01*
X142614286Y-114885714D01*
X142566667Y-114790476D01*
X142471429Y-114742857D01*
X141947619Y-114742857D01*
X142471429Y-114742857D02*
X142566667Y-114695238D01*
X142614286Y-114600000D01*
X142614286Y-114457143D01*
X142566667Y-114361905D01*
X142471429Y-114314286D01*
X141947619Y-114314286D01*
X141947619Y-113695239D02*
X141995238Y-113790477D01*
X142042857Y-113838096D01*
X142138095Y-113885715D01*
X142423810Y-113885715D01*
X142519048Y-113838096D01*
X142566667Y-113790477D01*
X142614286Y-113695239D01*
X142614286Y-113552381D01*
X142566667Y-113457143D01*
X142519048Y-113409524D01*
X142423810Y-113361905D01*
X142138095Y-113361905D01*
X142042857Y-113409524D01*
X141995238Y-113457143D01*
X141947619Y-113552381D01*
X141947619Y-113695239D01*
X126100000Y-136664000D02*
X126100000Y-131164000D01*
X119500000Y-136664000D02*
X119500000Y-131164000D01*
X126100000Y-136664000D02*
X119500000Y-136664000D01*
X134200000Y-120264000D02*
G75*
G03X134200000Y-120264000I-11400000J0D01*
G01*
X124483714Y-120324571D02*
X124340857Y-120372190D01*
X124293238Y-120419810D01*
X124245619Y-120515048D01*
X124245619Y-120657905D01*
X124293238Y-120753143D01*
X124340857Y-120800762D01*
X124436095Y-120848381D01*
X124817048Y-120848381D01*
X124817048Y-119848381D01*
X124483714Y-119848381D01*
X124388476Y-119896000D01*
X124340857Y-119943619D01*
X124293238Y-120038857D01*
X124293238Y-120134095D01*
X124340857Y-120229333D01*
X124388476Y-120276952D01*
X124483714Y-120324571D01*
X124817048Y-120324571D01*
X123959905Y-119848381D02*
X123388476Y-119848381D01*
X123674191Y-120848381D02*
X123674191Y-119848381D01*
X122531333Y-120848381D02*
X123102762Y-120848381D01*
X122817048Y-120848381D02*
X122817048Y-119848381D01*
X122912286Y-119991238D01*
X123007524Y-120086476D01*
X123102762Y-120134095D01*
D12*
X123942857Y-129528286D02*
X121657143Y-129528286D01*
X122800000Y-130671143D02*
X122800000Y-128385429D01*
M02*
