%
M48
METRIC,000.000
T01C0.33
T02C0.79
T03C0.81
T04C0.99
T05C0.99
T06C1.02
T07C2.49
%
T01
X029144Y017205
X020063Y016888
X020063Y019237
X029144Y057305
X020063Y056987
X020063Y059337
X054355Y025294
X063436Y025612
X063436Y023262
X054256Y065494
X063336Y065812
X063336Y063462
T02
X034732Y010792
X034732Y013332
X034732Y015872
X034732Y018412
X033970Y025777
X027112Y010792
X027112Y013332
X027112Y015872
X027112Y018412
X027112Y022730
X027112Y026032
X034732Y050891
X034732Y053431
X034732Y055971
X034732Y058511
X033970Y065877
X027112Y050891
X027112Y053431
X027112Y055971
X027112Y058511
X027112Y062829
X027112Y066131
X048767Y031708
X048767Y029168
X048767Y026628
X048767Y024087
X049530Y016722
X056387Y031708
X056387Y029168
X056387Y026628
X056387Y024087
X056387Y019769
X056387Y016468
X048668Y071908
X048668Y069368
X048668Y066828
X048668Y064288
X049430Y056922
X056288Y071908
X056288Y069368
X056288Y066828
X056288Y064288
X056288Y059970
X056288Y056668
T03
X033970Y023278
X029611Y022730
X029611Y026032
X028409Y035762
X028409Y038663
X023411Y024863
X023411Y027665
X023210Y008864
X023210Y013964
X020789Y035762
X020789Y038663
X015791Y024863
X015791Y027665
X015590Y008864
X015590Y013964
X033970Y063378
X029611Y062829
X029611Y066131
X028409Y075862
X028409Y078763
X023411Y064962
X023411Y067765
X023210Y048964
X023210Y054064
X020789Y075862
X020789Y078763
X015791Y064962
X015791Y067765
X015590Y048964
X015590Y054064
X049530Y019221
X053888Y019769
X053888Y016468
X055090Y006737
X055090Y003836
X060088Y017636
X060088Y014834
X060289Y033635
X060289Y028535
X062710Y006737
X062710Y003836
X067708Y017636
X067708Y014834
X067909Y033635
X067909Y028535
X049430Y059421
X053788Y059970
X053788Y056668
X054990Y046937
X054990Y044036
X059988Y057836
X059988Y055034
X060189Y073835
X060189Y068735
X062610Y046937
X062610Y044036
X067608Y057836
X067608Y055034
X067809Y073835
X067809Y068735
T04
X024201Y011264
X024201Y031264
X022900Y019463
X018148Y016964
X018148Y021962
X024201Y051364
X024201Y071364
X022900Y059563
X018148Y057064
X018148Y062062
X036050Y069113
X036050Y073614
X029547Y069113
X029547Y073614
X009441Y049563
X006901Y049563
X059298Y031235
X059298Y011235
X060599Y023036
X065351Y025535
X065351Y020537
X047449Y013486
X047449Y008985
X053952Y013486
X053952Y008985
X074058Y033036
X076598Y033036
X059198Y071435
X059198Y051435
X060499Y063236
X065251Y065735
X065251Y060737
X047349Y053686
X047349Y049185
X053852Y053686
X053852Y049185
X073958Y073236
X076498Y073236
T05
X036050Y029013
X036050Y033514
X029547Y029013
X029547Y033514
X009441Y009463
X006901Y009463
T06
X038034Y012570
X038034Y015110
X038034Y022730
X038034Y025269
X030160Y005204
X027620Y005204
X020000Y005204
X017460Y005204
X016479Y031099
X013939Y031099
X011399Y031099
X010599Y013563
X010599Y016103
X010599Y018643
X010599Y021183
X010599Y023723
X010599Y026263
X038034Y052669
X038034Y055209
X038034Y062829
X038034Y065369
X030160Y045303
X027620Y045303
X020000Y045303
X017460Y045303
X016479Y071199
X013939Y071199
X011399Y071199
X010599Y053663
X010599Y056203
X010599Y058743
X010599Y061283
X010599Y063823
X010599Y066363
X045465Y029930
X045465Y027390
X045465Y019769
X045465Y017230
X053339Y037296
X055879Y037296
X063500Y037296
X066039Y037296
X067020Y011400
X069560Y011400
X072100Y011400
X072900Y028936
X072900Y026396
X072900Y023856
X072900Y021316
X072900Y018776
X072900Y016236
X045366Y070130
X045366Y067590
X045366Y059970
X045366Y057430
X053240Y077496
X055780Y077496
X063400Y077496
X065940Y077496
X066920Y051600
X069460Y051600
X072000Y051600
X072800Y069136
X072800Y066596
X072800Y064056
X072800Y061516
X072800Y058976
X072800Y056436
T07
X037599Y005264
X037599Y037263
X005600Y005264
X005600Y037263
X037599Y045364
X037599Y077363
X005600Y045364
X005600Y077363
X045900Y037235
X045900Y005236
X077899Y037235
X077899Y005236
X045800Y077435
X045800Y045436
X077799Y077435
X077799Y045436
M30