%MOIN*%
%OFA0B0*%
%FSLAX46Y46*%
%IPPOS*%
%LPD*%
%ADD10C,0.0039370078740157488*%
%ADD11R,0.051181102362204731X0.051181102362204731*%
%ADD12C,0.051181102362204731*%
%ADD13R,0.07874015748031496X0.07874015748031496*%
%ADD14C,0.07874015748031496*%
%ADD15O,0.062992125984251982X0.062992125984251982*%
%ADD16R,0.08X0.08*%
%ADD17O,0.08X0.08*%
%ADD18C,0.0787*%
%ADD19R,0.08X0.068*%
%ADD20O,0.08X0.068*%
%ADD21R,0.068X0.08*%
%ADD22O,0.068X0.08*%
%ADD23C,0.027*%
%ADD24C,0.008*%
%ADD25C,0.012000000000000002*%
%ADD36C,0.0039370078740157488*%
%ADD37R,0.051181102362204731X0.051181102362204731*%
%ADD38C,0.051181102362204731*%
%ADD39R,0.07874015748031496X0.07874015748031496*%
%ADD40C,0.07874015748031496*%
%ADD41O,0.062992125984251982X0.062992125984251982*%
%ADD42R,0.08X0.08*%
%ADD43O,0.08X0.08*%
%ADD44C,0.0787*%
%ADD45R,0.08X0.068*%
%ADD46O,0.08X0.068*%
%ADD47R,0.068X0.08*%
%ADD48O,0.068X0.08*%
%ADD49C,0.027*%
%ADD50C,0.008*%
%ADD51C,0.012000000000000002*%
%ADD52C,0.0039370078740157488*%
%ADD53R,0.051181102362204731X0.051181102362204731*%
%ADD54C,0.051181102362204731*%
%ADD55R,0.07874015748031496X0.07874015748031496*%
%ADD56C,0.07874015748031496*%
%ADD57O,0.062992125984251982X0.062992125984251982*%
%ADD58R,0.08X0.08*%
%ADD59O,0.08X0.08*%
%ADD60C,0.0787*%
%ADD61R,0.08X0.068*%
%ADD62O,0.08X0.068*%
%ADD63R,0.068X0.08*%
%ADD64O,0.068X0.08*%
%ADD65C,0.027*%
%ADD66C,0.008*%
%ADD67C,0.012000000000000002*%
%ADD68C,0.0039370078740157488*%
%ADD69R,0.051181102362204731X0.051181102362204731*%
%ADD70C,0.051181102362204731*%
%ADD71R,0.07874015748031496X0.07874015748031496*%
%ADD72C,0.07874015748031496*%
%ADD73O,0.062992125984251982X0.062992125984251982*%
%ADD74R,0.08X0.08*%
%ADD75O,0.08X0.08*%
%ADD76C,0.0787*%
%ADD77R,0.08X0.068*%
%ADD78O,0.08X0.068*%
%ADD79R,0.068X0.08*%
%ADD80O,0.068X0.08*%
%ADD81C,0.027*%
%ADD82C,0.008*%
%ADD83C,0.012000000000000002*%
G01*
D10*
D11*
X0005787401Y-0004055118D02*
X0001067401Y0000894881D03*
D12*
X0001165826Y0000894881D03*
D11*
X0001337401Y0001014881D03*
D12*
X0001337401Y0000916456D03*
D11*
X0001067401Y0001024881D03*
D12*
X0001165826Y0001024881D03*
D13*
X0000271653Y0000372598D03*
D14*
X0000371653Y0000372598D03*
D15*
X0001367401Y0000424881D03*
X0001367401Y0000524881D03*
X0001367401Y0000624881D03*
X0001367401Y0000724881D03*
X0001067401Y0000724881D03*
X0001067401Y0000624881D03*
X0001067401Y0000524881D03*
X0001067401Y0000424881D03*
D16*
X0001087401Y0000204881D03*
D17*
X0001187401Y0000204881D03*
D16*
X0000687401Y0000204881D03*
D17*
X0000787401Y0000204881D03*
D16*
X0001497401Y0000894881D03*
D17*
X0001497401Y0000994881D03*
D16*
X0001497401Y0000494881D03*
D17*
X0001497401Y0000594881D03*
D18*
X0000921653Y0001089133D03*
X0000621653Y0001089133D03*
X0001118503Y0001408031D03*
X0000818503Y0001408031D03*
X0000818503Y0001522204D03*
X0001118503Y0001522204D03*
X0000913779Y0000348976D03*
X0000613779Y0000348976D03*
X0000621653Y0000978897D03*
X0000921653Y0000978897D03*
X0000613779Y0000549763D03*
X0000913779Y0000549763D03*
X0001163338Y0001142266D03*
X0001419338Y0001319466D03*
X0001163338Y0001319466D03*
X0001419338Y0001142266D03*
D19*
X0000417322Y0001034015D03*
D20*
X0000417322Y0000934015D03*
X0000417322Y0000834015D03*
X0000417322Y0000734015D03*
X0000417322Y0000634015D03*
X0000417322Y0000534015D03*
D14*
X0000952755Y0001230866D03*
X0000952755Y0000443464D03*
D18*
X0000714517Y0000864699D03*
X0000901574Y0000766299D03*
X0000714517Y0000667899D03*
D21*
X0000448818Y0001224409D03*
D22*
X0000548818Y0001224409D03*
X0000648818Y0001224409D03*
D23*
X0001147401Y0000677381D03*
X0000789901Y0000664881D03*
X0000789901Y0000757381D03*
D24*
X0001067401Y0000894881D02*
X0001005669Y0000894881D01*
X0001005669Y0000894881D02*
X0000921653Y0000978897D01*
X0001497401Y0000994881D02*
X0001421259Y0000994645D01*
X0001135669Y0000963149D02*
X0001067401Y0000894881D01*
X0001421259Y0000963149D02*
X0001135669Y0000963149D01*
X0001421259Y0000994645D02*
X0001421259Y0000963149D01*
X0001497401Y0000994881D02*
X0001472677Y0000994881D01*
X0001497401Y0000741338D02*
X0001497401Y0000594881D01*
X0001421259Y0000817480D02*
X0001497401Y0000741338D01*
X0001421259Y0000963149D02*
X0001421259Y0000817480D01*
X0001497401Y0000994881D02*
X0001492401Y0000994881D01*
D25*
X0000547401Y0000667899D02*
X0000547401Y0000499881D01*
X0000749090Y0000433881D02*
X0000833996Y0000348976D01*
X0000613401Y0000433881D02*
X0000749090Y0000433881D01*
X0000547401Y0000499881D02*
X0000613401Y0000433881D01*
X0000714517Y0000667899D02*
X0000547401Y0000667899D01*
X0000547401Y0000667899D02*
X0000547244Y0001156062D01*
X0001163338Y0001142266D02*
X0000978363Y0001142266D01*
X0000964566Y0001156062D02*
X0000547244Y0001156062D01*
X0000978363Y0001142266D02*
X0000964566Y0001156062D01*
X0000547244Y0001219055D02*
X0000547244Y0001156062D01*
X0000913779Y0000348976D02*
X0000833996Y0000348976D01*
X0001067401Y0000424881D02*
X0001067401Y0000384881D01*
X0001031496Y0000348976D02*
X0000913779Y0000348976D01*
X0001067401Y0000384881D02*
X0001031496Y0000348976D01*
X0001337401Y0001014881D02*
X0001337401Y0001062755D01*
X0001257891Y0001142266D02*
X0001163338Y0001142266D01*
X0001337401Y0001062755D02*
X0001257891Y0001142266D01*
D24*
X0001147401Y0000677381D02*
X0001144901Y0000674881D01*
X0001144901Y0000674881D02*
X0001009901Y0000674881D01*
X0001009901Y0000674881D02*
X0001007401Y0000674881D01*
X0001007401Y0000674881D02*
X0000997401Y0000684881D01*
X0000997401Y0000684881D02*
X0000879901Y0000684881D01*
X0000879901Y0000684881D02*
X0000744783Y0000549763D01*
X0000744783Y0000549763D02*
X0000613779Y0000549763D01*
X0001147401Y0000677381D02*
X0001308346Y0000524881D01*
X0001308346Y0000524881D02*
X0001367401Y0000524881D01*
X0000818503Y0001408031D02*
X0000448051Y0001408031D01*
X0000448051Y0001408031D02*
X0000272401Y0001204881D01*
X0000272401Y0001204881D02*
X0000272401Y0000369881D01*
X0000371653Y0000372598D02*
X0000346456Y0000397795D01*
X0000346456Y0000397795D02*
X0000346456Y0000663149D01*
X0000346456Y0000663149D02*
X0000417322Y0000734015D01*
X0001367086Y0000624566D02*
X0001267716Y0000624566D01*
X0000759901Y0000977381D02*
X0000623169Y0000977381D01*
X0000862401Y0000874881D02*
X0000759901Y0000977381D01*
X0000929901Y0000874881D02*
X0000862401Y0000874881D01*
X0000982401Y0000822381D02*
X0000929901Y0000874881D01*
X0001117401Y0000822381D02*
X0000982401Y0000822381D01*
X0001182401Y0000757381D02*
X0001117401Y0000822381D01*
X0001182401Y0000709881D02*
X0001182401Y0000757381D01*
X0001267716Y0000624566D02*
X0001182401Y0000709881D01*
X0000623169Y0000977381D02*
X0000621653Y0000978897D01*
X0000789901Y0000664881D02*
X0000789901Y0000757381D01*
D25*
X0000940944Y0001219055D02*
X0000645644Y0001219055D01*
X0000952755Y0001230866D02*
X0000940944Y0001219055D01*
X0000417401Y0000534881D02*
X0000487401Y0000584881D01*
X0000487401Y0001074881D02*
X0000447401Y0001114881D01*
X0000487401Y0000584881D02*
X0000487401Y0001074881D01*
X0000487401Y0000584881D02*
X0000487401Y0000584881D01*
X0000447401Y0001114881D02*
X0000447401Y0001214881D01*
G04 next file*
G04 #@! TF.FileFunction,Copper,L1,Top,Signal*
G04 Gerber Fmt 4.6, Leading zero omitted, Abs format (unit mm)*
G04 Created by KiCad (PCBNEW 4.0.1-stable) date 10/18/2017 12:48:17 AM*
G01*
G04 APERTURE LIST*
G04 APERTURE END LIST*
D36*
D37*
X0005787401Y-0002476377D02*
X0001067401Y0002473621D03*
D38*
X0001165826Y0002473621D03*
D37*
X0001337401Y0002593621D03*
D38*
X0001337401Y0002495196D03*
D37*
X0001067401Y0002603621D03*
D38*
X0001165826Y0002603621D03*
D39*
X0000271653Y0001951338D03*
D40*
X0000371653Y0001951338D03*
D41*
X0001367401Y0002003621D03*
X0001367401Y0002103621D03*
X0001367401Y0002203621D03*
X0001367401Y0002303621D03*
X0001067401Y0002303621D03*
X0001067401Y0002203621D03*
X0001067401Y0002103621D03*
X0001067401Y0002003621D03*
D42*
X0001087401Y0001783621D03*
D43*
X0001187401Y0001783621D03*
D42*
X0000687401Y0001783621D03*
D43*
X0000787401Y0001783621D03*
D42*
X0001497401Y0002473621D03*
D43*
X0001497401Y0002573621D03*
D42*
X0001497401Y0002073621D03*
D43*
X0001497401Y0002173621D03*
D44*
X0000921653Y0002667873D03*
X0000621653Y0002667873D03*
X0001118503Y0002986771D03*
X0000818503Y0002986771D03*
X0000818503Y0003100944D03*
X0001118503Y0003100944D03*
X0000913779Y0001927716D03*
X0000613779Y0001927716D03*
X0000621653Y0002557637D03*
X0000921653Y0002557637D03*
X0000613779Y0002128503D03*
X0000913779Y0002128503D03*
X0001163338Y0002721006D03*
X0001419338Y0002898206D03*
X0001163338Y0002898206D03*
X0001419338Y0002721006D03*
D45*
X0000417322Y0002612755D03*
D46*
X0000417322Y0002512755D03*
X0000417322Y0002412755D03*
X0000417322Y0002312755D03*
X0000417322Y0002212755D03*
X0000417322Y0002112755D03*
D40*
X0000952755Y0002809606D03*
X0000952755Y0002022204D03*
D44*
X0000714517Y0002443439D03*
X0000901574Y0002345039D03*
X0000714517Y0002246639D03*
D47*
X0000448818Y0002803149D03*
D48*
X0000548818Y0002803149D03*
X0000648818Y0002803149D03*
D49*
X0001147401Y0002256121D03*
X0000789901Y0002243621D03*
X0000789901Y0002336121D03*
D50*
X0001067401Y0002473621D02*
X0001005669Y0002473621D01*
X0001005669Y0002473621D02*
X0000921653Y0002557637D01*
X0001497401Y0002573621D02*
X0001421259Y0002573385D01*
X0001135669Y0002541889D02*
X0001067401Y0002473621D01*
X0001421259Y0002541889D02*
X0001135669Y0002541889D01*
X0001421259Y0002573385D02*
X0001421259Y0002541889D01*
X0001497401Y0002573621D02*
X0001472677Y0002573621D01*
X0001497401Y0002320078D02*
X0001497401Y0002173621D01*
X0001421259Y0002396220D02*
X0001497401Y0002320078D01*
X0001421259Y0002541889D02*
X0001421259Y0002396220D01*
X0001497401Y0002573621D02*
X0001492401Y0002573621D01*
D51*
X0000547401Y0002246639D02*
X0000547401Y0002078621D01*
X0000749090Y0002012621D02*
X0000833996Y0001927716D01*
X0000613401Y0002012621D02*
X0000749090Y0002012621D01*
X0000547401Y0002078621D02*
X0000613401Y0002012621D01*
X0000714517Y0002246639D02*
X0000547401Y0002246639D01*
X0000547401Y0002246639D02*
X0000547244Y0002734803D01*
X0001163338Y0002721006D02*
X0000978363Y0002721006D01*
X0000964566Y0002734803D02*
X0000547244Y0002734803D01*
X0000978363Y0002721006D02*
X0000964566Y0002734803D01*
X0000547244Y0002797795D02*
X0000547244Y0002734803D01*
X0000913779Y0001927716D02*
X0000833996Y0001927716D01*
X0001067401Y0002003621D02*
X0001067401Y0001963621D01*
X0001031496Y0001927716D02*
X0000913779Y0001927716D01*
X0001067401Y0001963621D02*
X0001031496Y0001927716D01*
X0001337401Y0002593621D02*
X0001337401Y0002641495D01*
X0001257891Y0002721006D02*
X0001163338Y0002721006D01*
X0001337401Y0002641495D02*
X0001257891Y0002721006D01*
D50*
X0001147401Y0002256121D02*
X0001144901Y0002253621D01*
X0001144901Y0002253621D02*
X0001009901Y0002253621D01*
X0001009901Y0002253621D02*
X0001007401Y0002253621D01*
X0001007401Y0002253621D02*
X0000997401Y0002263621D01*
X0000997401Y0002263621D02*
X0000879901Y0002263621D01*
X0000879901Y0002263621D02*
X0000744783Y0002128503D01*
X0000744783Y0002128503D02*
X0000613779Y0002128503D01*
X0001147401Y0002256121D02*
X0001308346Y0002103621D01*
X0001308346Y0002103621D02*
X0001367401Y0002103621D01*
X0000818503Y0002986771D02*
X0000448051Y0002986771D01*
X0000448051Y0002986771D02*
X0000272401Y0002783621D01*
X0000272401Y0002783621D02*
X0000272401Y0001948621D01*
X0000371653Y0001951338D02*
X0000346456Y0001976535D01*
X0000346456Y0001976535D02*
X0000346456Y0002241889D01*
X0000346456Y0002241889D02*
X0000417322Y0002312755D01*
X0001367086Y0002203307D02*
X0001267716Y0002203307D01*
X0000759901Y0002556121D02*
X0000623169Y0002556121D01*
X0000862401Y0002453621D02*
X0000759901Y0002556121D01*
X0000929901Y0002453621D02*
X0000862401Y0002453621D01*
X0000982401Y0002401121D02*
X0000929901Y0002453621D01*
X0001117401Y0002401121D02*
X0000982401Y0002401121D01*
X0001182401Y0002336121D02*
X0001117401Y0002401121D01*
X0001182401Y0002288621D02*
X0001182401Y0002336121D01*
X0001267716Y0002203307D02*
X0001182401Y0002288621D01*
X0000623169Y0002556121D02*
X0000621653Y0002557637D01*
X0000789901Y0002243621D02*
X0000789901Y0002336121D01*
D51*
X0000940944Y0002797795D02*
X0000645644Y0002797795D01*
X0000952755Y0002809606D02*
X0000940944Y0002797795D01*
X0000417401Y0002113621D02*
X0000487401Y0002163621D01*
X0000487401Y0002653621D02*
X0000447401Y0002693621D01*
X0000487401Y0002163621D02*
X0000487401Y0002653621D01*
X0000487401Y0002163621D02*
X0000487401Y0002163621D01*
X0000447401Y0002693621D02*
X0000447401Y0002793621D01*
G04 next file*
G04 #@! TF.FileFunction,Copper,L1,Top,Signal*
G04 Gerber Fmt 4.6, Leading zero omitted, Abs format (unit mm)*
G04 Created by KiCad (PCBNEW 4.0.1-stable) date 10/18/2017 12:48:17 AM*
G01*
G04 APERTURE LIST*
G04 APERTURE END LIST*
D52*
D53*
X-0002500000Y0005728346D02*
X0002220000Y0000778346D03*
D54*
X0002121574Y0000778346D03*
D53*
X0001950000Y0000658346D03*
D54*
X0001950000Y0000756771D03*
D53*
X0002220000Y0000648346D03*
D54*
X0002121574Y0000648346D03*
D55*
X0003015748Y0001300629D03*
D56*
X0002915748Y0001300629D03*
D57*
X0001920000Y0001248346D03*
X0001920000Y0001148346D03*
X0001920000Y0001048346D03*
X0001920000Y0000948346D03*
X0002220000Y0000948346D03*
X0002220000Y0001048346D03*
X0002220000Y0001148346D03*
X0002220000Y0001248346D03*
D58*
X0002199999Y0001468346D03*
D59*
X0002100000Y0001468346D03*
D58*
X0002599999Y0001468346D03*
D59*
X0002500000Y0001468346D03*
D58*
X0001789999Y0000778346D03*
D59*
X0001789999Y0000678346D03*
D58*
X0001789999Y0001178346D03*
D59*
X0001789999Y0001078346D03*
D60*
X0002365748Y0000584094D03*
X0002665748Y0000584094D03*
X0002168897Y0000265196D03*
X0002468897Y0000265196D03*
X0002468897Y0000151023D03*
X0002168897Y0000151023D03*
X0002373622Y0001324251D03*
X0002673622Y0001324251D03*
X0002665748Y0000694330D03*
X0002365748Y0000694330D03*
X0002673622Y0001123464D03*
X0002373622Y0001123464D03*
X0002124062Y0000530962D03*
X0001868062Y0000353762D03*
X0002124062Y0000353762D03*
X0001868062Y0000530962D03*
D61*
X0002870078Y0000639212D03*
D62*
X0002870078Y0000739212D03*
X0002870078Y0000839212D03*
X0002870078Y0000939212D03*
X0002870078Y0001039212D03*
X0002870078Y0001139212D03*
D56*
X0002334645Y0000442362D03*
X0002334645Y0001229763D03*
D60*
X0002572884Y0000808529D03*
X0002385826Y0000906929D03*
X0002572884Y0001005329D03*
D63*
X0002838582Y0000448818D03*
D64*
X0002738582Y0000448818D03*
X0002638582Y0000448818D03*
D65*
X0002139999Y0000995846D03*
X0002497499Y0001008346D03*
X0002497499Y0000915846D03*
D66*
X0002220000Y0000778346D02*
X0002281732Y0000778346D01*
X0002281732Y0000778346D02*
X0002365748Y0000694330D01*
X0001789999Y0000678346D02*
X0001866141Y0000678582D01*
X0002151732Y0000710078D02*
X0002220000Y0000778346D01*
X0001866141Y0000710078D02*
X0002151732Y0000710078D01*
X0001866141Y0000678582D02*
X0001866141Y0000710078D01*
X0001789999Y0000678346D02*
X0001814724Y0000678346D01*
X0001789999Y0000931889D02*
X0001789999Y0001078346D01*
X0001866141Y0000855748D02*
X0001789999Y0000931889D01*
X0001866141Y0000710078D02*
X0001866141Y0000855748D01*
X0001789999Y0000678346D02*
X0001795000Y0000678346D01*
D67*
X0002740000Y0001005329D02*
X0002740000Y0001173346D01*
X0002538311Y0001239346D02*
X0002453405Y0001324251D01*
X0002674000Y0001239346D02*
X0002538311Y0001239346D01*
X0002740000Y0001173346D02*
X0002674000Y0001239346D01*
X0002572884Y0001005329D02*
X0002740000Y0001005329D01*
X0002740000Y0001005329D02*
X0002740157Y0000517165D01*
X0002124062Y0000530962D02*
X0002309037Y0000530962D01*
X0002322834Y0000517165D02*
X0002740157Y0000517165D01*
X0002309037Y0000530962D02*
X0002322834Y0000517165D01*
X0002740157Y0000454173D02*
X0002740157Y0000517165D01*
X0002373622Y0001324251D02*
X0002453405Y0001324251D01*
X0002220000Y0001248346D02*
X0002220000Y0001288346D01*
X0002255905Y0001324251D02*
X0002373622Y0001324251D01*
X0002220000Y0001288346D02*
X0002255905Y0001324251D01*
X0001950000Y0000658346D02*
X0001950000Y0000610472D01*
X0002029510Y0000530962D02*
X0002124062Y0000530962D01*
X0001950000Y0000610472D02*
X0002029510Y0000530962D01*
D66*
X0002139999Y0000995846D02*
X0002142500Y0000998346D01*
X0002142500Y0000998346D02*
X0002277500Y0000998346D01*
X0002277500Y0000998346D02*
X0002280000Y0000998346D01*
X0002280000Y0000998346D02*
X0002290000Y0000988346D01*
X0002290000Y0000988346D02*
X0002407499Y0000988346D01*
X0002407499Y0000988346D02*
X0002542618Y0001123464D01*
X0002542618Y0001123464D02*
X0002673622Y0001123464D01*
X0002139999Y0000995846D02*
X0001979055Y0001148346D01*
X0001979055Y0001148346D02*
X0001920000Y0001148346D01*
X0002468897Y0000265196D02*
X0002839350Y0000265196D01*
X0002839350Y0000265196D02*
X0003014999Y0000468346D01*
X0003014999Y0000468346D02*
X0003014999Y0001303346D01*
X0002915748Y0001300629D02*
X0002940944Y0001275433D01*
X0002940944Y0001275433D02*
X0002940944Y0001010078D01*
X0002940944Y0001010078D02*
X0002870078Y0000939212D01*
X0001920314Y0001048661D02*
X0002019685Y0001048661D01*
X0002527499Y0000695846D02*
X0002664232Y0000695846D01*
X0002425000Y0000798346D02*
X0002527499Y0000695846D01*
X0002357500Y0000798346D02*
X0002425000Y0000798346D01*
X0002305000Y0000850846D02*
X0002357500Y0000798346D01*
X0002169999Y0000850846D02*
X0002305000Y0000850846D01*
X0002105000Y0000915846D02*
X0002169999Y0000850846D01*
X0002105000Y0000963346D02*
X0002105000Y0000915846D01*
X0002019685Y0001048661D02*
X0002105000Y0000963346D01*
X0002664232Y0000695846D02*
X0002665748Y0000694330D01*
X0002497499Y0001008346D02*
X0002497499Y0000915846D01*
D67*
X0002346456Y0000454173D02*
X0002641757Y0000454173D01*
X0002334645Y0000442362D02*
X0002346456Y0000454173D01*
X0002870000Y0001138346D02*
X0002800000Y0001088346D01*
X0002800000Y0000598346D02*
X0002840000Y0000558346D01*
X0002800000Y0001088346D02*
X0002800000Y0000598346D01*
X0002800000Y0001088346D02*
X0002800000Y0001088346D01*
X0002840000Y0000558346D02*
X0002840000Y0000458346D01*
G04 next file*
G04 #@! TF.FileFunction,Copper,L1,Top,Signal*
G04 Gerber Fmt 4.6, Leading zero omitted, Abs format (unit mm)*
G04 Created by KiCad (PCBNEW 4.0.1-stable) date 10/18/2017 12:48:17 AM*
G01*
G04 APERTURE LIST*
G04 APERTURE END LIST*
D68*
D69*
X-0002503936Y0007311024D02*
X0002216063Y0002361024D03*
D70*
X0002117637Y0002361024D03*
D69*
X0001946063Y0002241024D03*
D70*
X0001946063Y0002339449D03*
D69*
X0002216063Y0002231024D03*
D70*
X0002117637Y0002231024D03*
D71*
X0003011811Y0002883307D03*
D72*
X0002911811Y0002883307D03*
D73*
X0001916063Y0002831024D03*
X0001916063Y0002731024D03*
X0001916063Y0002631024D03*
X0001916063Y0002531024D03*
X0002216063Y0002531024D03*
X0002216063Y0002631024D03*
X0002216063Y0002731024D03*
X0002216063Y0002831024D03*
D74*
X0002196063Y0003051024D03*
D75*
X0002096063Y0003051024D03*
D74*
X0002596063Y0003051024D03*
D75*
X0002496063Y0003051024D03*
D74*
X0001786063Y0002361024D03*
D75*
X0001786063Y0002261024D03*
D74*
X0001786063Y0002761024D03*
D75*
X0001786063Y0002661024D03*
D76*
X0002361811Y0002166772D03*
X0002661811Y0002166772D03*
X0002164960Y0001847874D03*
X0002464960Y0001847874D03*
X0002464960Y0001733701D03*
X0002164960Y0001733701D03*
X0002369685Y0002906929D03*
X0002669685Y0002906929D03*
X0002661811Y0002277008D03*
X0002361811Y0002277008D03*
X0002669685Y0002706142D03*
X0002369685Y0002706142D03*
X0002120126Y0002113639D03*
X0001864126Y0001936439D03*
X0002120126Y0001936439D03*
X0001864126Y0002113639D03*
D77*
X0002866141Y0002221890D03*
D78*
X0002866141Y0002321890D03*
X0002866141Y0002421890D03*
X0002866141Y0002521890D03*
X0002866141Y0002621890D03*
X0002866141Y0002721890D03*
D72*
X0002330708Y0002025039D03*
X0002330708Y0002812441D03*
D76*
X0002568947Y0002391206D03*
X0002381889Y0002489606D03*
X0002568947Y0002588006D03*
D79*
X0002834645Y0002031496D03*
D80*
X0002734645Y0002031496D03*
X0002634645Y0002031496D03*
D81*
X0002136063Y0002578524D03*
X0002493563Y0002591024D03*
X0002493563Y0002498524D03*
D82*
X0002216063Y0002361024D02*
X0002277795Y0002361024D01*
X0002277795Y0002361024D02*
X0002361811Y0002277008D01*
X0001786063Y0002261024D02*
X0001862204Y0002261260D01*
X0002147795Y0002292756D02*
X0002216063Y0002361024D01*
X0001862204Y0002292756D02*
X0002147795Y0002292756D01*
X0001862204Y0002261260D02*
X0001862204Y0002292756D01*
X0001786063Y0002261024D02*
X0001810787Y0002261024D01*
X0001786063Y0002514567D02*
X0001786063Y0002661024D01*
X0001862204Y0002438425D02*
X0001786063Y0002514567D01*
X0001862204Y0002292756D02*
X0001862204Y0002438425D01*
X0001786063Y0002261024D02*
X0001791063Y0002261024D01*
D83*
X0002736063Y0002588006D02*
X0002736063Y0002756024D01*
X0002534374Y0002822024D02*
X0002449468Y0002906929D01*
X0002670063Y0002822024D02*
X0002534374Y0002822024D01*
X0002736063Y0002756024D02*
X0002670063Y0002822024D01*
X0002568947Y0002588006D02*
X0002736063Y0002588006D01*
X0002736063Y0002588006D02*
X0002736220Y0002099842D01*
X0002120126Y0002113639D02*
X0002305100Y0002113639D01*
X0002318897Y0002099842D02*
X0002736220Y0002099842D01*
X0002305100Y0002113639D02*
X0002318897Y0002099842D01*
X0002736220Y0002036850D02*
X0002736220Y0002099842D01*
X0002369685Y0002906929D02*
X0002449468Y0002906929D01*
X0002216063Y0002831024D02*
X0002216063Y0002871024D01*
X0002251968Y0002906929D02*
X0002369685Y0002906929D01*
X0002216063Y0002871024D02*
X0002251968Y0002906929D01*
X0001946063Y0002241024D02*
X0001946063Y0002193150D01*
X0002025573Y0002113639D02*
X0002120126Y0002113639D01*
X0001946063Y0002193150D02*
X0002025573Y0002113639D01*
D82*
X0002136063Y0002578524D02*
X0002138563Y0002581024D01*
X0002138563Y0002581024D02*
X0002273563Y0002581024D01*
X0002273563Y0002581024D02*
X0002276063Y0002581024D01*
X0002276063Y0002581024D02*
X0002286063Y0002571024D01*
X0002286063Y0002571024D02*
X0002403563Y0002571024D01*
X0002403563Y0002571024D02*
X0002538681Y0002706142D01*
X0002538681Y0002706142D02*
X0002669685Y0002706142D01*
X0002136063Y0002578524D02*
X0001975118Y0002731024D01*
X0001975118Y0002731024D02*
X0001916063Y0002731024D01*
X0002464960Y0001847874D02*
X0002835413Y0001847874D01*
X0002835413Y0001847874D02*
X0003011063Y0002051024D01*
X0003011063Y0002051024D02*
X0003011063Y0002886024D01*
X0002911811Y0002883307D02*
X0002937007Y0002858110D01*
X0002937007Y0002858110D02*
X0002937007Y0002592756D01*
X0002937007Y0002592756D02*
X0002866141Y0002521890D01*
X0001916377Y0002631339D02*
X0002015748Y0002631339D01*
X0002523563Y0002278524D02*
X0002660295Y0002278524D01*
X0002421063Y0002381024D02*
X0002523563Y0002278524D01*
X0002353563Y0002381024D02*
X0002421063Y0002381024D01*
X0002301063Y0002433524D02*
X0002353563Y0002381024D01*
X0002166063Y0002433524D02*
X0002301063Y0002433524D01*
X0002101063Y0002498524D02*
X0002166063Y0002433524D01*
X0002101063Y0002546024D02*
X0002101063Y0002498524D01*
X0002015748Y0002631339D02*
X0002101063Y0002546024D01*
X0002660295Y0002278524D02*
X0002661811Y0002277008D01*
X0002493563Y0002591024D02*
X0002493563Y0002498524D01*
D83*
X0002342519Y0002036850D02*
X0002637820Y0002036850D01*
X0002330708Y0002025039D02*
X0002342519Y0002036850D01*
X0002866063Y0002721024D02*
X0002796063Y0002671024D01*
X0002796063Y0002181024D02*
X0002836063Y0002141024D01*
X0002796063Y0002671024D02*
X0002796063Y0002181024D01*
X0002796063Y0002671024D02*
X0002796063Y0002671024D01*
X0002836063Y0002141024D02*
X0002836063Y0002041024D01*
M02*