%
M48
METRIC,000.000
T01C0.50
%
T01
X023881Y040513
X022881Y040513
X021881Y040513
X020881Y040513
X019881Y040513
X018881Y040513
X019181Y042113
X020181Y042113
X021181Y042113
X022181Y042113
X023181Y042113
X024181Y042113
X040849Y058734
X040849Y059734
X040849Y060734
X040849Y061734
X040849Y062734
X040849Y063734
X042549Y064280
X042549Y063280
X042549Y062280
X042549Y061280
X042549Y060280
X042549Y059280
X064075Y040486
X063075Y040486
X062075Y040486
X061075Y040486
X060075Y040486
X059075Y040486
X059761Y042186
X060761Y042186
X061761Y042186
X062761Y042186
X063761Y042186
X064761Y042186
X040849Y018634
X040849Y019634
X040849Y020634
X040849Y021634
X040849Y022634
X040849Y023634
X042650Y024080
X042650Y023080
X042650Y022080
X042650Y021080
X042650Y020080
X042650Y019080
M30